<svg width="800" height="800" viewBox="0 0 800 800" fill="none" xmlns="http://www.w3.org/2000/svg">
  <!-- Atomic orbits -->
  <path d="M400 150C550 150 650 350 650 400C650 450 550 650 400 650C250 650 150 450 150 400C150 350 250 150 400 150Z" stroke="#6366F1" stroke-width="4" fill="none" transform="rotate(60 400 400)"/>
  <path d="M400 150C550 150 650 350 650 400C650 450 550 650 400 650C250 650 150 450 150 400C150 350 250 150 400 150Z" stroke="#6366F1" stroke-width="4" fill="none" transform="rotate(180 400 400)"/>
  <path d="M400 150C550 150 650 350 650 400C650 450 550 650 400 650C250 650 150 450 150 400C150 350 250 150 400 150Z" stroke="#6366F1" stroke-width="4" fill="none" transform="rotate(300 400 400)"/>
  
  <!-- Electrons -->
  <circle cx="650" cy="400" r="20" fill="#6366F1"/>
  <circle cx="275" cy="575" r="20" fill="#6366F1"/>
  <circle cx="275" cy="225" r="20" fill="#6366F1"/>
  
  <!-- Center circle with accessibility icon -->
  <circle cx="400" cy="400" r="60" fill="white" filter="url(#shadow)"/>
  <path d="M400 360C382.327 360 368 374.327 368 392C368 409.673 382.327 424 400 424C417.673 424 432 409.673 432 392C432 374.327 417.673 360 400 360ZM408 396H404V408H396V396H392V388H408V396Z" fill="black"/>
  
  <!-- Shadow filter -->
  <defs>
    <filter id="shadow" x="-20%" y="-20%" width="140%" height="140%">
      <feDropShadow dx="0" dy="4" stdDeviation="4" flood-opacity="0.25"/>
    </filter>
  </defs>
</svg>