<?xml version="1.0" standalone="no"?>
<!DOCTYPE svg PUBLIC "-//W3C//DTD SVG 20010904//EN"
 "http://www.w3.org/TR/2001/REC-SVG-20010904/DTD/svg10.dtd">
<svg version="1.0" xmlns="http://www.w3.org/2000/svg"
 width="1024.000000pt" height="1024.000000pt" viewBox="0 0 1024.000000 1024.000000"
 preserveAspectRatio="xMidYMid meet">

<g transform="translate(0.000000,1024.000000) scale(0.100000,-0.100000)"
fill="#000000" stroke="none">
<path d="M7514 9841 c-38 -23 -48 -50 -68 -193 -23 -159 -54 -291 -92 -397
-138 -380 -377 -687 -696 -895 -250 -163 -488 -252 -826 -310 -79 -14 -155
-32 -168 -41 -50 -32 -58 -103 -16 -144 24 -24 50 -31 212 -63 225 -44 366
-89 525 -167 532 -261 871 -703 1028 -1341 20 -80 41 -176 48 -215 14 -87 31
-120 69 -140 65 -33 132 -5 149 63 5 20 19 91 31 157 147 793 659 1386 1365
1585 57 16 168 40 247 55 78 14 158 31 175 36 71 22 95 102 48 158 -28 32 -39
36 -250 71 -294 49 -555 152 -790 308 -313 209 -528 473 -669 818 -55 135 -88
257 -116 435 -29 184 -28 178 -60 210 -35 35 -98 40 -146 10z"/>
<path d="M1920 8679 c-333 -34 -667 -239 -892 -546 -106 -144 -195 -366 -223
-552 -23 -146 -22 -5158 0 -5304 19 -126 72 -286 135 -406 198 -376 570 -641
965 -690 63 -8 727 -11 2214 -11 1168 0 2122 2 2120 4 -2 3 -639 6 -1414 7
-775 1 -1417 4 -1427 7 -18 4 -18 5 -1 25 10 11 12 17 6 13 -7 -4 -13 -2 -13
3 0 6 -5 11 -11 11 -5 0 -8 -4 -4 -9 3 -5 1 -12 -5 -16 -6 -4 -10 5 -10 19 0
14 -5 26 -11 26 -5 0 -8 -4 -5 -9 3 -5 -1 -11 -9 -15 -8 -3 -17 0 -21 6 -4 6
-3 8 3 5 17 -11 23 20 8 33 -8 7 -13 16 -10 20 3 5 1 11 -5 15 -5 3 -10 -1
-10 -9 0 -9 -7 -16 -15 -16 -8 0 -15 5 -15 11 0 5 4 8 8 5 5 -3 9 1 9 9 0 20
-14 19 -25 -2 -9 -14 -11 -14 -21 5 -9 18 -9 21 3 16 8 -3 17 -1 20 5 4 6 13
8 21 4 10 -3 15 1 15 12 0 16 -2 16 -25 1 -25 -17 -25 -16 -21 9 3 14 1 23 -4
20 -5 -3 -19 8 -31 25 -19 25 -25 28 -38 17 -14 -11 -14 -10 -2 5 12 17 9 23
-12 19 -5 -1 -6 3 -2 9 3 5 13 10 21 10 8 0 13 -4 9 -9 -3 -5 -1 -12 5 -16 5
-3 10 1 10 11 0 13 3 14 14 5 11 -9 16 -9 22 0 4 7 3 10 -2 7 -5 -3 -17 3 -27
12 -14 13 -15 20 -6 26 8 5 10 3 4 -7 -9 -14 -8 -13 35 19 3 2 -6 3 -20 2 -41
-4 -50 -1 -50 16 0 8 -5 12 -10 9 -6 -4 -8 -11 -5 -16 4 -5 1 -9 -4 -9 -14 0
-14 13 1 28 16 16 28 15 28 -3 0 -8 5 -15 10 -15 6 0 9 5 8 12 -2 6 8 15 22
19 14 4 -116 7 -289 8 -173 1 -312 3 -310 5 2 2 1059 7 2349 11 1290 4 2347 9
2349 11 2 2 -1186 4 -2640 4 -2873 0 -2729 -3 -2889 55 -270 98 -476 327 -552
615 l-23 85 0 2580 0 2580 23 85 c45 171 126 304 265 436 89 84 159 131 259
172 152 61 4 56 1888 62 949 3 1426 7 1060 8 -366 2 -719 5 -785 7 -66 3 -205
6 -310 7 -165 2 -173 3 -57 5 76 2 132 8 132 13 0 6 5 10 11 10 5 0 7 -4 4
-10 -3 -5 -1 -10 4 -10 6 0 11 6 11 13 0 7 3 8 8 2 10 -14 32 -17 32 -4 0 5 4
8 9 5 5 -3 11 1 15 9 6 17 -9 21 -19 5 -12 -19 -22 -10 -17 15 3 20 1 24 -12
19 -12 -4 -16 0 -16 16 0 17 4 21 18 16 16 -6 16 -5 0 7 -16 13 -16 15 0 31
16 17 16 18 -5 7 -14 -7 -24 -7 -28 -1 -3 5 -12 7 -20 3 -8 -3 -15 0 -15 7 0
8 9 11 25 8 14 -3 28 -1 32 5 3 5 1 7 -5 3 -6 -3 -13 -2 -17 4 -10 16 -50 5
-49 -13 1 -11 -5 -16 -17 -14 -25 4 -37 17 -15 17 9 0 14 5 11 10 -3 6 -1 10
5 10 6 0 8 5 5 10 -3 6 -1 10 4 10 6 0 11 4 11 9 0 5 -11 8 -24 7 -17 -2 -23
1 -19 11 3 8 12 12 21 8 9 -3 13 -3 9 1 -4 4 0 18 9 32 8 13 13 26 11 29 -3 3
-13 -8 -22 -24 l-16 -28 6 29 c5 22 3 27 -8 23 -8 -3 -14 1 -14 9 0 13 13 17
47 15 11 0 11 1 2 5 -9 4 -10 10 -2 19 8 10 1 12 -37 11 -26 -1 -55 2 -65 6
-10 5 -18 3 -22 -7 -7 -19 -4 -31 7 -27 5 1 6 -2 2 -8 -3 -5 1 -10 10 -10 9 0
14 4 11 9 -4 5 4 7 16 3 12 -3 17 -7 10 -10 -7 -2 -9 -8 -6 -14 9 -15 -37 1
-58 20 -10 8 -15 18 -13 23 10 16 -22 23 -110 25 -265 6 -82 9 885 14 970 5
915 5 -615 6 -924 1 -1718 -3 -1765 -7z m1283 -6 c-7 -2 -19 -2 -25 0 -7 3 -2
5 12 5 14 0 19 -2 13 -5z m427 -103 c0 -5 -5 -10 -11 -10 -5 0 -7 5 -4 10 3 6
8 10 11 10 2 0 4 -4 4 -10z m40 -144 c0 -3 -4 -8 -10 -11 -5 -3 -10 -1 -10 4
0 6 5 11 10 11 6 0 10 -2 10 -4z m53 -38 c-4 -14 0 -26 12 -34 16 -12 16 -14
3 -14 -9 0 -20 9 -23 21 l-7 20 -18 -20 c-20 -24 -39 -29 -20 -6 7 8 9 15 4
15 -5 1 4 8 19 16 16 8 25 20 21 26 -4 6 -3 8 4 5 5 -4 8 -17 5 -29z m-28 12
c-3 -5 -14 -10 -23 -10 -15 0 -15 2 -2 10 20 13 33 13 25 0z m-45 -24 c0 -3
-4 -8 -10 -11 -5 -3 -10 -1 -10 4 0 6 5 11 10 11 6 0 10 -2 10 -4z m-387 -83
c-7 -2 -21 -2 -30 0 -10 3 -4 5 12 5 17 0 24 -2 18 -5z m85 0 c-10 -2 -26 -2
-35 0 -10 3 -2 5 17 5 19 0 27 -2 18 -5z m70 0 c-10 -2 -26 -2 -35 0 -10 3 -2
5 17 5 19 0 27 -2 18 -5z m-278 -6754 c-7 -11 -14 -18 -17 -15 -3 3 0 12 7 21
18 21 23 19 10 -6z m84 -156 c-5 -5 -12 -12 -16 -18 -4 -6 -8 -2 -8 8 0 9 7
17 17 17 9 0 12 -3 7 -7z m26 -17 c0 -2 -7 -7 -16 -10 -8 -3 -12 -2 -9 4 6 10
25 14 25 6z m93 -173 c-7 -2 -19 -2 -25 0 -7 3 -2 5 12 5 14 0 19 -2 13 -5z"/>
<path d="M5403 8669 c21 -5 47 -14 58 -19 10 -6 19 -8 19 -5 0 10 -68 35 -92
34 -15 -1 -9 -4 15 -10z"/>
<path d="M3720 8650 c0 -6 7 -10 15 -10 8 0 15 2 15 4 0 2 -7 6 -15 10 -8 3
-15 1 -15 -4z"/>
<path d="M3778 8643 c7 -3 16 -2 19 1 4 3 -2 6 -13 5 -11 0 -14 -3 -6 -6z"/>
<path d="M5497 8630 c24 -38 53 -72 53 -62 0 7 -14 26 -31 44 -18 18 -27 26
-22 18z"/>
<path d="M3670 8556 c0 -2 8 -10 18 -17 15 -13 16 -12 3 4 -13 16 -21 21 -21
13z"/>
<path d="M5563 8480 c0 -25 2 -35 4 -22 2 12 2 32 0 45 -2 12 -4 2 -4 -23z"/>
<path d="M3705 8490 c3 -5 14 -10 23 -10 15 0 15 2 2 10 -20 13 -33 13 -25 0z"/>
<path d="M5516 8364 c-15 -20 -42 -44 -60 -55 -17 -10 -27 -19 -22 -19 18 0
72 40 95 70 32 44 22 47 -13 4z"/>
<path d="M5398 8283 c7 -3 16 -2 19 1 4 3 -2 6 -13 5 -11 0 -14 -3 -6 -6z"/>
<path d="M4578 7074 c-176 -42 -318 -183 -357 -354 -52 -224 61 -466 264 -566
327 -160 705 79 705 446 0 134 -47 247 -145 346 -120 122 -296 170 -467 128z"/>
<path d="M2785 6126 c-126 -57 -157 -257 -53 -353 34 -32 185 -104 341 -162
227 -85 474 -152 836 -227 133 -28 203 -86 236 -195 57 -195 41 -546 -45 -979
-57 -282 -148 -584 -369 -1210 -73 -207 -67 -281 29 -363 69 -58 144 -71 235
-40 80 27 125 81 170 203 217 593 487 1297 503 1312 36 37 55 12 122 -159 110
-280 391 -1005 433 -1117 51 -138 88 -193 150 -225 120 -61 248 -26 313 85 47
80 41 115 -84 474 -230 662 -286 872 -348 1286 -22 149 -27 216 -28 399 -1
252 9 326 58 407 43 74 96 100 266 133 393 77 898 248 1066 361 70 48 104 106
104 179 -1 117 -87 205 -201 205 -22 0 -102 -20 -177 -45 -426 -142 -822 -210
-1386 -237 -346 -16 -735 3 -1076 53 -270 39 -589 112 -850 194 -120 37 -194
44 -245 21z"/>
<path d="M8235 6110 c-3 -6 1 -7 9 -4 18 7 21 14 7 14 -6 0 -13 -4 -16 -10z"/>
<path d="M8495 6080 c10 -11 20 -20 23 -20 3 0 -3 9 -13 20 -10 11 -20 20 -23
20 -3 0 3 -9 13 -20z"/>
<path d="M8189 6073 c-13 -16 -12 -17 4 -4 16 13 21 21 13 21 -2 0 -10 -8 -17
-17z"/>
<path d="M8141 3104 c0 -11 3 -14 6 -6 3 7 2 16 -1 19 -3 4 -6 -2 -5 -13z"/>
<path d="M8142 3015 c0 -16 2 -22 5 -12 2 9 2 23 0 30 -3 6 -5 -1 -5 -18z"/>
<path d="M8142 2960 c0 -14 2 -19 5 -12 2 6 2 18 0 25 -3 6 -5 1 -5 -13z"/>
<path d="M8143 2845 c0 -22 2 -30 4 -17 2 12 2 30 0 40 -3 9 -5 -1 -4 -23z"/>
<path d="M8142 2775 c0 -16 2 -22 5 -12 2 9 2 23 0 30 -3 6 -5 -1 -5 -18z"/>
<path d="M8142 2690 c0 -19 2 -27 5 -17 2 9 2 25 0 35 -3 9 -5 1 -5 -18z"/>
<path d="M8142 2615 c0 -16 2 -22 5 -12 2 9 2 23 0 30 -3 6 -5 -1 -5 -18z"/>
<path d="M8143 2495 c0 -38 2 -53 4 -32 2 20 2 52 0 70 -2 17 -4 1 -4 -38z"/>
<path d="M8131 2324 c0 -11 3 -14 6 -6 3 7 2 16 -1 19 -3 4 -6 -2 -5 -13z"/>
<path d="M8289 1673 c-13 -16 -12 -17 4 -4 16 13 21 21 13 21 -2 0 -10 -8 -17
-17z"/>
<path d="M3350 1559 c0 -5 5 -7 10 -4 6 3 10 8 10 11 0 2 -4 4 -10 4 -5 0 -10
-5 -10 -11z"/>
<path d="M3276 1502 c-3 -5 1 -9 9 -9 8 0 12 4 9 9 -3 4 -7 8 -9 8 -2 0 -6 -4
-9 -8z"/>
<path d="M3220 1426 c7 -7 14 -6 21 1 9 9 7 12 -9 10 -14 -1 -18 -5 -12 -11z"/>
<path d="M3340 1340 c-9 -6 -10 -10 -3 -10 6 0 15 5 18 10 8 12 4 12 -15 0z"/>
<path d="M3347 1293 c-10 -9 -9 -23 1 -23 5 0 9 7 9 15 0 17 -1 18 -10 8z"/>
<path d="M3424 1222 c3 -6 -2 -12 -11 -14 -12 -2 -14 -6 -7 -11 7 -4 17 0 23
7 9 11 9 16 0 22 -7 4 -9 3 -5 -4z"/>
<path d="M6323 1173 c9 -2 23 -2 30 0 6 3 -1 5 -18 5 -16 0 -22 -2 -12 -5z"/>
<path d="M6398 1173 c7 -3 16 -2 19 1 4 3 -2 6 -13 5 -11 0 -14 -3 -6 -6z"/>
<path d="M6498 1173 c7 -3 16 -2 19 1 4 3 -2 6 -13 5 -11 0 -14 -3 -6 -6z"/>
<path d="M7303 1173 c9 -2 23 -2 30 0 6 3 -1 5 -18 5 -16 0 -22 -2 -12 -5z"/>
</g>
</svg>
