<svg xmlns="http://www.w3.org/2000/svg" xmlns:xlink="http://www.w3.org/1999/xlink" width="24018" zoomAndPan="magnify" viewBox="0 0 18013.5 19822.499425" height="26430" preserveAspectRatio="xMidYMid meet" version="1.0"><defs><clipPath id="95e4d24e3e"><path d="M 338 28 L 17677 28 L 17677 19789 L 338 19789 Z M 338 28 " clip-rule="nonzero"/></clipPath><clipPath id="63cc4754ad"><path d="M 17464.433594 4780.324219 C 16951.316406 3915.09375 15551.238281 3674.035156 13555.6875 4096.003906 C 13049.976562 4205.199219 12550.738281 4341.230469 12059.371094 4503.171875 C 11418.089844 1791.8125 10300.25 28.039062 9008.4375 28.039062 C 7716.628906 28.039062 6598.785156 1791.8125 5967.222656 4503.171875 C 5475.851562 4341.230469 4976.617188 4205.199219 4470.90625 4096.003906 C 2475.355469 3674.035156 1097.023438 3915.09375 562.160156 4780.324219 C 27.296875 5645.089844 463.144531 6987.351562 1766.988281 8563.734375 C 2157.492188 9037.066406 2577.144531 9486.339844 3022.707031 9908.3125 C 2573.441406 10330.285156 2151.011719 10779.09375 1757.269531 11252.886719 C 463.144531 12828.804688 39.328125 14171.53125 552.445312 15036.296875 C 918.886719 15622.0625 1673.0625 15932.988281 2742.785156 15932.988281 C 3323.453125 15924.660156 3901.804688 15856.644531 4468.59375 15730.332031 C 4973.84375 15621.136719 5473.539062 15485.105469 5964.910156 15323.164062 C 6598.785156 18024.808594 7716.628906 19788.582031 9008.4375 19788.582031 C 10300.25 19788.582031 11418.089844 18024.808594 12049.65625 15313.449219 C 12541.023438 15475.390625 13040.257812 15611.421875 13545.972656 15720.617188 C 14113.21875 15850.632812 14692.035156 15921.421875 15274.09375 15932.988281 C 16346.128906 15932.988281 17100.765625 15631.78125 17457.03125 15046.015625 C 17980.324219 14180.785156 17556.042969 12838.523438 16252.203125 11262.601562 C 15861.234375 10786.03125 15441.121094 10333.523438 14994.632812 9908.3125 C 15443.433594 9486.339844 15865.863281 9037.527344 16259.605469 8563.734375 C 17553.730469 6987.816406 17977.550781 5645.089844 17464.433594 4780.324219 Z M 15886.222656 8257.433594 C 15498.03125 8723.363281 15082.078125 9165.230469 14640.214844 9580.726562 C 13976.730469 8986.171875 13279.929688 8430.019531 12553.050781 7915.507812 C 12484.574219 6927.664062 12351.785156 5945.839844 12155.609375 4975.578125 C 12645.128906 4813.175781 13143.4375 4677.144531 13647.296875 4567.949219 C 15399.015625 4194.558594 16638.082031 4365.753906 17042.929688 5030.640625 C 17447.777344 5695.988281 17025.808594 6871.679688 15886.222656 8257.433594 Z M 7381.644531 12585.429688 C 6880.558594 12281.90625 6393.816406 11964.039062 5935.761719 11638.769531 C 5895.042969 11084.46875 5875.609375 10508.417969 5875.609375 9908.3125 C 5875.609375 9308.203125 5895.042969 8732.152344 5928.820312 8177.851562 C 6393.816406 7852.582031 6892.589844 7534.714844 7374.703125 7231.191406 C 7916.96875 6900.828125 8461.546875 6597.304688 9001.035156 6317.839844 C 9540.988281 6597.304688 10085.5625 6900.828125 10627.828125 7231.191406 C 11128.914062 7534.714844 11615.65625 7852.582031 12073.714844 8177.851562 C 12107.488281 8732.152344 12126.921875 9308.203125 12126.921875 9908.3125 C 12126.921875 10508.417969 12107.488281 11084.46875 12073.714844 11638.769531 C 11623.0625 11964.039062 11136.316406 12281.90625 10635.230469 12585.429688 C 10092.96875 12915.792969 9548.390625 13219.316406 9008.4375 13498.78125 C 8468.488281 13219.316406 7923.910156 12915.792969 7381.644531 12585.429688 Z M 9528.957031 13761.589844 C 9977.296875 13520.527344 10427.949219 13279.464844 10873.511719 12997.6875 C 11278.359375 12756.628906 11667.941406 12509.550781 12042.25 12255.535156 C 11919.175781 13337.765625 11804.429688 14145.621094 11697.550781 14680.027344 C 10959.109375 14412.59375 10235.011719 14106.292969 9528.957031 13761.589844 Z M 5964.910156 12257.847656 C 6528.921875 12636.328125 7008.257812 12925.972656 7123.929688 13000.003906 C 7579.210938 13282.242188 8029.863281 13523.304688 8478.203125 13763.902344 C 7772.148438 14108.605469 7048.050781 14414.90625 6309.609375 14682.339844 C 6149.519531 13880.960938 6034.773438 13071.71875 5964.910156 12257.847656 Z M 5427.273438 8534.585938 C 5405.988281 8982.933594 5393.957031 9440.992188 5393.957031 9908.3125 C 5393.957031 10375.628906 5405.988281 10833.691406 5427.273438 11282.035156 C 4817.917969 10833.691406 4249.28125 10373.3125 3740.792969 9908.3125 C 4256.222656 9443.308594 4824.859375 8982.933594 5427.273438 8534.585938 Z M 8487.921875 6055.03125 C 8039.582031 6296.09375 7588.925781 6537.15625 7143.363281 6818.933594 C 6739.902344 7059.996094 6350.324219 7307.070312 5974.625 7561.085938 C 6097.699219 6478.855469 6212.445312 5671 6318.863281 5137.058594 C 7057.765625 5404.027344 7781.867188 5710.328125 8487.921875 6055.03125 Z M 12051.96875 7558.773438 C 11487.957031 7180.292969 11008.617188 6890.648438 10892.945312 6816.621094 C 10437.667969 6546.410156 9987.011719 6293.78125 9538.671875 6052.71875 C 10244.726562 5708.015625 10968.828125 5401.714844 11707.269531 5134.28125 C 11867.355469 5935.660156 11982.101562 6744.902344 12051.96875 7558.773438 Z M 12589.605469 11282.035156 C 12623.378906 10833.691406 12623.378906 10375.628906 12623.378906 9908.3125 C 12623.378906 9440.992188 12623.378906 8982.933594 12589.605469 8534.585938 C 13198.957031 8982.933594 13767.59375 9443.308594 14276.085938 9908.3125 C 13760.65625 10373.3125 13192.019531 10833.691406 12589.605469 11282.035156 Z M 9008.4375 5780.195312 C 8170.519531 5354.519531 7306.691406 4981.128906 6422.503906 4661.875 C 7025.378906 2064.335938 8044.667969 510.164062 9008.4375 510.164062 C 9972.207031 510.164062 10991.496094 2064.335938 11594.375 4661.875 C 10710.1875 4981.128906 9846.355469 5354.519531 9008.4375 5780.195312 Z M 4369.578125 4567.949219 C 4873.441406 4677.144531 5371.75 4813.175781 5861.269531 4975.578125 C 5665.089844 5945.839844 5532.300781 6927.664062 5463.824219 7915.507812 C 4736.949219 8430.019531 4040.148438 8986.171875 3376.660156 9580.726562 C 2934.796875 9165.230469 2518.847656 8723.363281 2130.65625 8257.433594 C 991.066406 6871.679688 574.191406 5695.988281 973.949219 5030.640625 C 1374.167969 4365.753906 2617.859375 4194.558594 4369.578125 4567.949219 Z M 2130.65625 11556.875 C 2518.847656 11090.480469 2934.796875 10648.613281 3376.660156 10233.582031 C 4040.148438 10828.136719 4736.949219 11384.289062 5463.824219 11898.800781 C 5532.300781 12886.179688 5665.089844 13868.46875 5861.269531 14838.730469 C 5371.75 15002.058594 4873.902344 15138.554688 4369.578125 15248.671875 C 2617.859375 15617.4375 1378.796875 15448.554688 973.949219 14783.207031 C 569.101562 14118.320312 991.066406 12942.164062 2130.65625 11556.875 Z M 9008.4375 14036.425781 C 9846.355469 14462.101562 10710.1875 14835.492188 11594.375 15154.746094 C 10991.496094 17752.285156 9972.207031 19306.921875 9008.4375 19306.921875 C 8044.667969 19306.921875 7025.378906 17752.285156 6422.503906 15154.746094 C 7306.691406 14835.492188 8170.519531 14462.101562 9008.4375 14036.425781 Z M 12155.609375 14841.042969 C 12351.785156 13870.785156 12484.574219 12888.957031 12553.050781 11901.113281 C 13279.929688 11386.605469 13976.730469 10830.449219 14640.214844 10235.894531 C 15082.078125 10651.390625 15498.03125 11093.257812 15886.222656 11559.1875 C 17025.808594 12944.941406 17442.6875 14120.636719 17042.929688 14785.984375 C 16638.082031 15450.867188 15399.015625 15619.75 13647.296875 15248.671875 C 13143.4375 15139.476562 12645.128906 15003.445312 12155.609375 14841.042969 Z M 12155.609375 14841.042969 " clip-rule="nonzero"/></clipPath><linearGradient x1="249.99001" gradientTransform="matrix(46.268301, 0, 0, 46.268945, -2558.63728, -1658.925135)" y1="36.459993" x2="249.99001" gradientUnits="userSpaceOnUse" y2="463.540006" id="ec5c275d16"><stop stop-opacity="1" stop-color="rgb(17.298889%, 92.498779%, 100%)" offset="0"/><stop stop-opacity="1" stop-color="rgb(17.611694%, 92.3172%, 100%)" offset="0.00390625"/><stop stop-opacity="1" stop-color="rgb(17.926025%, 92.13562%, 100%)" offset="0.0078125"/><stop stop-opacity="1" stop-color="rgb(18.238831%, 91.952515%, 100%)" offset="0.0117188"/><stop stop-opacity="1" stop-color="rgb(18.553162%, 91.770935%, 100%)" offset="0.015625"/><stop stop-opacity="1" stop-color="rgb(18.867493%, 91.589355%, 100%)" offset="0.0195312"/><stop stop-opacity="1" stop-color="rgb(19.181824%, 91.407776%, 100%)" offset="0.0234375"/><stop stop-opacity="1" stop-color="rgb(19.494629%, 91.22467%, 100%)" offset="0.0273438"/><stop stop-opacity="1" stop-color="rgb(19.80896%, 91.043091%, 100%)" offset="0.03125"/><stop stop-opacity="1" stop-color="rgb(20.121765%, 90.859985%, 100%)" offset="0.0351562"/><stop stop-opacity="1" stop-color="rgb(20.436096%, 90.678406%, 100%)" offset="0.0390625"/><stop stop-opacity="1" stop-color="rgb(20.748901%, 90.496826%, 100%)" offset="0.0429688"/><stop stop-opacity="1" stop-color="rgb(21.063232%, 90.315247%, 100%)" offset="0.046875"/><stop stop-opacity="1" stop-color="rgb(21.376038%, 90.132141%, 100%)" offset="0.0507812"/><stop stop-opacity="1" stop-color="rgb(21.690369%, 89.950562%, 100%)" offset="0.0546875"/><stop stop-opacity="1" stop-color="rgb(22.003174%, 89.768982%, 100%)" offset="0.0585938"/><stop stop-opacity="1" stop-color="rgb(22.317505%, 89.587402%, 100%)" offset="0.0625"/><stop stop-opacity="1" stop-color="rgb(22.63031%, 89.404297%, 100%)" offset="0.0664062"/><stop stop-opacity="1" stop-color="rgb(22.944641%, 89.222717%, 100%)" offset="0.0703125"/><stop stop-opacity="1" stop-color="rgb(23.258972%, 89.039612%, 100%)" offset="0.0742188"/><stop stop-opacity="1" stop-color="rgb(23.573303%, 88.858032%, 100%)" offset="0.078125"/><stop stop-opacity="1" stop-color="rgb(23.886108%, 88.676453%, 100%)" offset="0.0820312"/><stop stop-opacity="1" stop-color="rgb(24.200439%, 88.494873%, 100%)" offset="0.0859375"/><stop stop-opacity="1" stop-color="rgb(24.513245%, 88.311768%, 100%)" offset="0.0898438"/><stop stop-opacity="1" stop-color="rgb(24.827576%, 88.130188%, 100%)" offset="0.09375"/><stop stop-opacity="1" stop-color="rgb(25.140381%, 87.948608%, 100%)" offset="0.0976562"/><stop stop-opacity="1" stop-color="rgb(25.454712%, 87.767029%, 100%)" offset="0.101562"/><stop stop-opacity="1" stop-color="rgb(25.767517%, 87.583923%, 100%)" offset="0.105469"/><stop stop-opacity="1" stop-color="rgb(26.081848%, 87.402344%, 100%)" offset="0.109375"/><stop stop-opacity="1" stop-color="rgb(26.394653%, 87.219238%, 100%)" offset="0.113281"/><stop stop-opacity="1" stop-color="rgb(26.708984%, 87.037659%, 100%)" offset="0.117188"/><stop stop-opacity="1" stop-color="rgb(27.02179%, 86.856079%, 100%)" offset="0.121094"/><stop stop-opacity="1" stop-color="rgb(27.336121%, 86.6745%, 100%)" offset="0.125"/><stop stop-opacity="1" stop-color="rgb(27.650452%, 86.491394%, 100%)" offset="0.128906"/><stop stop-opacity="1" stop-color="rgb(27.964783%, 86.309814%, 100%)" offset="0.132812"/><stop stop-opacity="1" stop-color="rgb(28.277588%, 86.128235%, 100%)" offset="0.136719"/><stop stop-opacity="1" stop-color="rgb(28.591919%, 85.946655%, 100%)" offset="0.140625"/><stop stop-opacity="1" stop-color="rgb(28.904724%, 85.76355%, 100%)" offset="0.144531"/><stop stop-opacity="1" stop-color="rgb(29.219055%, 85.58197%, 100%)" offset="0.148438"/><stop stop-opacity="1" stop-color="rgb(29.53186%, 85.398865%, 100%)" offset="0.152344"/><stop stop-opacity="1" stop-color="rgb(29.846191%, 85.217285%, 100%)" offset="0.15625"/><stop stop-opacity="1" stop-color="rgb(30.158997%, 85.035706%, 100%)" offset="0.160156"/><stop stop-opacity="1" stop-color="rgb(30.473328%, 84.854126%, 100%)" offset="0.164062"/><stop stop-opacity="1" stop-color="rgb(30.786133%, 84.671021%, 100%)" offset="0.167969"/><stop stop-opacity="1" stop-color="rgb(31.100464%, 84.489441%, 100%)" offset="0.171875"/><stop stop-opacity="1" stop-color="rgb(31.413269%, 84.307861%, 100%)" offset="0.175781"/><stop stop-opacity="1" stop-color="rgb(31.7276%, 84.126282%, 100%)" offset="0.179688"/><stop stop-opacity="1" stop-color="rgb(32.040405%, 83.943176%, 100%)" offset="0.183594"/><stop stop-opacity="1" stop-color="rgb(32.354736%, 83.761597%, 100%)" offset="0.1875"/><stop stop-opacity="1" stop-color="rgb(32.669067%, 83.580017%, 100%)" offset="0.191406"/><stop stop-opacity="1" stop-color="rgb(32.983398%, 83.398438%, 100%)" offset="0.195312"/><stop stop-opacity="1" stop-color="rgb(33.296204%, 83.215332%, 100%)" offset="0.199219"/><stop stop-opacity="1" stop-color="rgb(33.610535%, 83.033752%, 100%)" offset="0.203125"/><stop stop-opacity="1" stop-color="rgb(33.92334%, 82.850647%, 100%)" offset="0.207031"/><stop stop-opacity="1" stop-color="rgb(34.237671%, 82.669067%, 100%)" offset="0.210938"/><stop stop-opacity="1" stop-color="rgb(34.550476%, 82.487488%, 100%)" offset="0.214844"/><stop stop-opacity="1" stop-color="rgb(34.864807%, 82.305908%, 100%)" offset="0.21875"/><stop stop-opacity="1" stop-color="rgb(35.177612%, 82.122803%, 100%)" offset="0.222656"/><stop stop-opacity="1" stop-color="rgb(35.491943%, 81.941223%, 100%)" offset="0.226562"/><stop stop-opacity="1" stop-color="rgb(35.804749%, 81.759644%, 100%)" offset="0.230469"/><stop stop-opacity="1" stop-color="rgb(36.11908%, 81.578064%, 100%)" offset="0.234375"/><stop stop-opacity="1" stop-color="rgb(36.431885%, 81.394958%, 100%)" offset="0.238281"/><stop stop-opacity="1" stop-color="rgb(36.746216%, 81.213379%, 100%)" offset="0.242188"/><stop stop-opacity="1" stop-color="rgb(37.060547%, 81.030273%, 100%)" offset="0.246094"/><stop stop-opacity="1" stop-color="rgb(37.374878%, 80.848694%, 100%)" offset="0.25"/><stop stop-opacity="1" stop-color="rgb(37.687683%, 80.667114%, 100%)" offset="0.253906"/><stop stop-opacity="1" stop-color="rgb(38.002014%, 80.485535%, 100%)" offset="0.257812"/><stop stop-opacity="1" stop-color="rgb(38.314819%, 80.302429%, 100%)" offset="0.261719"/><stop stop-opacity="1" stop-color="rgb(38.62915%, 80.12085%, 100%)" offset="0.265625"/><stop stop-opacity="1" stop-color="rgb(38.941956%, 79.93927%, 100%)" offset="0.269531"/><stop stop-opacity="1" stop-color="rgb(39.256287%, 79.75769%, 100%)" offset="0.273437"/><stop stop-opacity="1" stop-color="rgb(39.569092%, 79.574585%, 100%)" offset="0.277344"/><stop stop-opacity="1" stop-color="rgb(39.883423%, 79.393005%, 100%)" offset="0.28125"/><stop stop-opacity="1" stop-color="rgb(40.196228%, 79.2099%, 100%)" offset="0.285156"/><stop stop-opacity="1" stop-color="rgb(40.510559%, 79.02832%, 100%)" offset="0.289062"/><stop stop-opacity="1" stop-color="rgb(40.823364%, 78.846741%, 100%)" offset="0.292969"/><stop stop-opacity="1" stop-color="rgb(41.137695%, 78.665161%, 100%)" offset="0.296875"/><stop stop-opacity="1" stop-color="rgb(41.452026%, 78.482056%, 100%)" offset="0.300781"/><stop stop-opacity="1" stop-color="rgb(41.766357%, 78.300476%, 100%)" offset="0.304687"/><stop stop-opacity="1" stop-color="rgb(42.079163%, 78.118896%, 100%)" offset="0.308594"/><stop stop-opacity="1" stop-color="rgb(42.393494%, 77.937317%, 100%)" offset="0.3125"/><stop stop-opacity="1" stop-color="rgb(42.706299%, 77.754211%, 100%)" offset="0.316406"/><stop stop-opacity="1" stop-color="rgb(43.02063%, 77.572632%, 100%)" offset="0.320312"/><stop stop-opacity="1" stop-color="rgb(43.333435%, 77.389526%, 100%)" offset="0.324219"/><stop stop-opacity="1" stop-color="rgb(43.647766%, 77.207947%, 100%)" offset="0.328125"/><stop stop-opacity="1" stop-color="rgb(43.960571%, 77.026367%, 100%)" offset="0.332031"/><stop stop-opacity="1" stop-color="rgb(44.274902%, 76.844788%, 100%)" offset="0.335937"/><stop stop-opacity="1" stop-color="rgb(44.587708%, 76.661682%, 100%)" offset="0.339844"/><stop stop-opacity="1" stop-color="rgb(44.902039%, 76.480103%, 100%)" offset="0.34375"/><stop stop-opacity="1" stop-color="rgb(45.214844%, 76.298523%, 100%)" offset="0.347656"/><stop stop-opacity="1" stop-color="rgb(45.529175%, 76.116943%, 100%)" offset="0.351562"/><stop stop-opacity="1" stop-color="rgb(45.84198%, 75.933838%, 100%)" offset="0.355469"/><stop stop-opacity="1" stop-color="rgb(46.156311%, 75.752258%, 100%)" offset="0.359375"/><stop stop-opacity="1" stop-color="rgb(46.470642%, 75.569153%, 100%)" offset="0.363281"/><stop stop-opacity="1" stop-color="rgb(46.784973%, 75.387573%, 100%)" offset="0.367187"/><stop stop-opacity="1" stop-color="rgb(47.097778%, 75.205994%, 100%)" offset="0.371094"/><stop stop-opacity="1" stop-color="rgb(47.412109%, 75.024414%, 100%)" offset="0.375"/><stop stop-opacity="1" stop-color="rgb(47.724915%, 74.841309%, 100%)" offset="0.378906"/><stop stop-opacity="1" stop-color="rgb(48.039246%, 74.659729%, 100%)" offset="0.382812"/><stop stop-opacity="1" stop-color="rgb(48.352051%, 74.478149%, 100%)" offset="0.386719"/><stop stop-opacity="1" stop-color="rgb(48.666382%, 74.29657%, 100%)" offset="0.390625"/><stop stop-opacity="1" stop-color="rgb(48.979187%, 74.113464%, 100%)" offset="0.394531"/><stop stop-opacity="1" stop-color="rgb(49.293518%, 73.931885%, 100%)" offset="0.398437"/><stop stop-opacity="1" stop-color="rgb(49.606323%, 73.750305%, 100%)" offset="0.402344"/><stop stop-opacity="1" stop-color="rgb(49.920654%, 73.568726%, 100%)" offset="0.40625"/><stop stop-opacity="1" stop-color="rgb(50.233459%, 73.38562%, 100%)" offset="0.410156"/><stop stop-opacity="1" stop-color="rgb(50.547791%, 73.204041%, 100%)" offset="0.414062"/><stop stop-opacity="1" stop-color="rgb(50.862122%, 73.020935%, 100%)" offset="0.417969"/><stop stop-opacity="1" stop-color="rgb(51.176453%, 72.839355%, 100%)" offset="0.421875"/><stop stop-opacity="1" stop-color="rgb(51.489258%, 72.657776%, 100%)" offset="0.425781"/><stop stop-opacity="1" stop-color="rgb(51.803589%, 72.476196%, 100%)" offset="0.429687"/><stop stop-opacity="1" stop-color="rgb(52.116394%, 72.293091%, 100%)" offset="0.433594"/><stop stop-opacity="1" stop-color="rgb(52.430725%, 72.111511%, 100%)" offset="0.4375"/><stop stop-opacity="1" stop-color="rgb(52.74353%, 71.929932%, 100%)" offset="0.441406"/><stop stop-opacity="1" stop-color="rgb(53.057861%, 71.748352%, 100%)" offset="0.445312"/><stop stop-opacity="1" stop-color="rgb(53.370667%, 71.565247%, 100%)" offset="0.449219"/><stop stop-opacity="1" stop-color="rgb(53.684998%, 71.383667%, 100%)" offset="0.453125"/><stop stop-opacity="1" stop-color="rgb(53.997803%, 71.200562%, 100%)" offset="0.457031"/><stop stop-opacity="1" stop-color="rgb(54.312134%, 71.018982%, 100%)" offset="0.460937"/><stop stop-opacity="1" stop-color="rgb(54.624939%, 70.837402%, 100%)" offset="0.464844"/><stop stop-opacity="1" stop-color="rgb(54.93927%, 70.655823%, 100%)" offset="0.46875"/><stop stop-opacity="1" stop-color="rgb(55.253601%, 70.472717%, 100%)" offset="0.472656"/><stop stop-opacity="1" stop-color="rgb(55.567932%, 70.291138%, 100%)" offset="0.476562"/><stop stop-opacity="1" stop-color="rgb(55.880737%, 70.109558%, 100%)" offset="0.480469"/><stop stop-opacity="1" stop-color="rgb(56.195068%, 69.927979%, 100%)" offset="0.484375"/><stop stop-opacity="1" stop-color="rgb(56.507874%, 69.744873%, 100%)" offset="0.488281"/><stop stop-opacity="1" stop-color="rgb(56.822205%, 69.563293%, 100%)" offset="0.492187"/><stop stop-opacity="1" stop-color="rgb(57.13501%, 69.380188%, 100%)" offset="0.496094"/><stop stop-opacity="1" stop-color="rgb(57.449341%, 69.198608%, 100%)" offset="0.5"/><stop stop-opacity="1" stop-color="rgb(57.762146%, 69.017029%, 100%)" offset="0.503906"/><stop stop-opacity="1" stop-color="rgb(58.076477%, 68.835449%, 100%)" offset="0.507812"/><stop stop-opacity="1" stop-color="rgb(58.389282%, 68.652344%, 100%)" offset="0.511719"/><stop stop-opacity="1" stop-color="rgb(58.703613%, 68.470764%, 100%)" offset="0.515625"/><stop stop-opacity="1" stop-color="rgb(59.016418%, 68.289185%, 100%)" offset="0.519531"/><stop stop-opacity="1" stop-color="rgb(59.33075%, 68.107605%, 100%)" offset="0.523438"/><stop stop-opacity="1" stop-color="rgb(59.643555%, 67.9245%, 100%)" offset="0.527344"/><stop stop-opacity="1" stop-color="rgb(59.957886%, 67.74292%, 100%)" offset="0.53125"/><stop stop-opacity="1" stop-color="rgb(60.272217%, 67.559814%, 100%)" offset="0.535156"/><stop stop-opacity="1" stop-color="rgb(60.586548%, 67.378235%, 100%)" offset="0.539062"/><stop stop-opacity="1" stop-color="rgb(60.899353%, 67.196655%, 100%)" offset="0.542969"/><stop stop-opacity="1" stop-color="rgb(61.213684%, 67.015076%, 100%)" offset="0.546875"/><stop stop-opacity="1" stop-color="rgb(61.526489%, 66.83197%, 100%)" offset="0.550781"/><stop stop-opacity="1" stop-color="rgb(61.84082%, 66.650391%, 100%)" offset="0.554688"/><stop stop-opacity="1" stop-color="rgb(62.153625%, 66.468811%, 100%)" offset="0.558594"/><stop stop-opacity="1" stop-color="rgb(62.467957%, 66.287231%, 100%)" offset="0.5625"/><stop stop-opacity="1" stop-color="rgb(62.780762%, 66.104126%, 100%)" offset="0.566406"/><stop stop-opacity="1" stop-color="rgb(63.095093%, 65.922546%, 100%)" offset="0.570312"/><stop stop-opacity="1" stop-color="rgb(63.407898%, 65.739441%, 100%)" offset="0.574219"/><stop stop-opacity="1" stop-color="rgb(63.722229%, 65.557861%, 100%)" offset="0.578125"/><stop stop-opacity="1" stop-color="rgb(64.035034%, 65.376282%, 100%)" offset="0.582031"/><stop stop-opacity="1" stop-color="rgb(64.349365%, 65.194702%, 100%)" offset="0.585938"/><stop stop-opacity="1" stop-color="rgb(64.663696%, 65.011597%, 100%)" offset="0.589844"/><stop stop-opacity="1" stop-color="rgb(64.978027%, 64.830017%, 100%)" offset="0.59375"/><stop stop-opacity="1" stop-color="rgb(65.290833%, 64.648438%, 100%)" offset="0.597656"/><stop stop-opacity="1" stop-color="rgb(65.605164%, 64.466858%, 100%)" offset="0.601562"/><stop stop-opacity="1" stop-color="rgb(65.917969%, 64.283752%, 100%)" offset="0.605469"/><stop stop-opacity="1" stop-color="rgb(66.2323%, 64.102173%, 100%)" offset="0.609375"/><stop stop-opacity="1" stop-color="rgb(66.545105%, 63.920593%, 100%)" offset="0.613281"/><stop stop-opacity="1" stop-color="rgb(66.859436%, 63.739014%, 100%)" offset="0.617188"/><stop stop-opacity="1" stop-color="rgb(67.172241%, 63.555908%, 100%)" offset="0.621094"/><stop stop-opacity="1" stop-color="rgb(67.486572%, 63.374329%, 100%)" offset="0.625"/><stop stop-opacity="1" stop-color="rgb(67.799377%, 63.191223%, 100%)" offset="0.628906"/><stop stop-opacity="1" stop-color="rgb(68.113708%, 63.009644%, 100%)" offset="0.632812"/><stop stop-opacity="1" stop-color="rgb(68.426514%, 62.828064%, 100%)" offset="0.636719"/><stop stop-opacity="1" stop-color="rgb(68.740845%, 62.646484%, 100%)" offset="0.640625"/><stop stop-opacity="1" stop-color="rgb(69.055176%, 62.463379%, 100%)" offset="0.644531"/><stop stop-opacity="1" stop-color="rgb(69.369507%, 62.281799%, 100%)" offset="0.648438"/><stop stop-opacity="1" stop-color="rgb(69.682312%, 62.10022%, 100%)" offset="0.652344"/><stop stop-opacity="1" stop-color="rgb(69.996643%, 61.91864%, 100%)" offset="0.65625"/><stop stop-opacity="1" stop-color="rgb(70.309448%, 61.735535%, 100%)" offset="0.660156"/><stop stop-opacity="1" stop-color="rgb(70.623779%, 61.553955%, 100%)" offset="0.664062"/><stop stop-opacity="1" stop-color="rgb(70.936584%, 61.37085%, 100%)" offset="0.667969"/><stop stop-opacity="1" stop-color="rgb(71.250916%, 61.18927%, 100%)" offset="0.671875"/><stop stop-opacity="1" stop-color="rgb(71.563721%, 61.00769%, 100%)" offset="0.675781"/><stop stop-opacity="1" stop-color="rgb(71.878052%, 60.826111%, 100%)" offset="0.679688"/><stop stop-opacity="1" stop-color="rgb(72.190857%, 60.643005%, 100%)" offset="0.683594"/><stop stop-opacity="1" stop-color="rgb(72.505188%, 60.461426%, 100%)" offset="0.6875"/><stop stop-opacity="1" stop-color="rgb(72.817993%, 60.279846%, 100%)" offset="0.691406"/><stop stop-opacity="1" stop-color="rgb(73.132324%, 60.098267%, 100%)" offset="0.695312"/><stop stop-opacity="1" stop-color="rgb(73.445129%, 59.915161%, 100%)" offset="0.699219"/><stop stop-opacity="1" stop-color="rgb(73.75946%, 59.733582%, 100%)" offset="0.703125"/><stop stop-opacity="1" stop-color="rgb(74.073792%, 59.550476%, 100%)" offset="0.707031"/><stop stop-opacity="1" stop-color="rgb(74.388123%, 59.368896%, 100%)" offset="0.710938"/><stop stop-opacity="1" stop-color="rgb(74.700928%, 59.187317%, 100%)" offset="0.714844"/><stop stop-opacity="1" stop-color="rgb(75.015259%, 59.005737%, 100%)" offset="0.71875"/><stop stop-opacity="1" stop-color="rgb(75.328064%, 58.822632%, 100%)" offset="0.722656"/><stop stop-opacity="1" stop-color="rgb(75.642395%, 58.641052%, 100%)" offset="0.726562"/><stop stop-opacity="1" stop-color="rgb(75.9552%, 58.459473%, 100%)" offset="0.730469"/><stop stop-opacity="1" stop-color="rgb(76.269531%, 58.277893%, 100%)" offset="0.734375"/><stop stop-opacity="1" stop-color="rgb(76.582336%, 58.094788%, 100%)" offset="0.738281"/><stop stop-opacity="1" stop-color="rgb(76.896667%, 57.913208%, 100%)" offset="0.742188"/><stop stop-opacity="1" stop-color="rgb(77.209473%, 57.730103%, 100%)" offset="0.746094"/><stop stop-opacity="1" stop-color="rgb(77.523804%, 57.548523%, 100%)" offset="0.75"/><stop stop-opacity="1" stop-color="rgb(77.836609%, 57.366943%, 100%)" offset="0.753906"/><stop stop-opacity="1" stop-color="rgb(78.15094%, 57.185364%, 100%)" offset="0.757812"/><stop stop-opacity="1" stop-color="rgb(78.465271%, 57.002258%, 100%)" offset="0.761719"/><stop stop-opacity="1" stop-color="rgb(78.779602%, 56.820679%, 100%)" offset="0.765625"/><stop stop-opacity="1" stop-color="rgb(79.092407%, 56.639099%, 100%)" offset="0.769531"/><stop stop-opacity="1" stop-color="rgb(79.406738%, 56.45752%, 100%)" offset="0.773438"/><stop stop-opacity="1" stop-color="rgb(79.719543%, 56.274414%, 100%)" offset="0.777344"/><stop stop-opacity="1" stop-color="rgb(80.033875%, 56.092834%, 100%)" offset="0.78125"/><stop stop-opacity="1" stop-color="rgb(80.34668%, 55.911255%, 100%)" offset="0.785156"/><stop stop-opacity="1" stop-color="rgb(80.661011%, 55.729675%, 100%)" offset="0.789062"/><stop stop-opacity="1" stop-color="rgb(80.973816%, 55.54657%, 100%)" offset="0.792969"/><stop stop-opacity="1" stop-color="rgb(81.288147%, 55.36499%, 100%)" offset="0.796875"/><stop stop-opacity="1" stop-color="rgb(81.600952%, 55.181885%, 100%)" offset="0.800781"/><stop stop-opacity="1" stop-color="rgb(81.915283%, 55.000305%, 100%)" offset="0.804688"/><stop stop-opacity="1" stop-color="rgb(82.228088%, 54.818726%, 100%)" offset="0.808594"/><stop stop-opacity="1" stop-color="rgb(82.542419%, 54.637146%, 100%)" offset="0.8125"/><stop stop-opacity="1" stop-color="rgb(82.85675%, 54.454041%, 100%)" offset="0.816406"/><stop stop-opacity="1" stop-color="rgb(83.171082%, 54.272461%, 100%)" offset="0.820312"/><stop stop-opacity="1" stop-color="rgb(83.483887%, 54.090881%, 100%)" offset="0.824219"/><stop stop-opacity="1" stop-color="rgb(83.798218%, 53.909302%, 100%)" offset="0.828125"/><stop stop-opacity="1" stop-color="rgb(84.111023%, 53.726196%, 100%)" offset="0.832031"/><stop stop-opacity="1" stop-color="rgb(84.425354%, 53.544617%, 100%)" offset="0.835938"/><stop stop-opacity="1" stop-color="rgb(84.738159%, 53.361511%, 100%)" offset="0.839844"/><stop stop-opacity="1" stop-color="rgb(85.05249%, 53.179932%, 100%)" offset="0.84375"/><stop stop-opacity="1" stop-color="rgb(85.365295%, 52.998352%, 100%)" offset="0.847656"/><stop stop-opacity="1" stop-color="rgb(85.679626%, 52.816772%, 100%)" offset="0.851562"/><stop stop-opacity="1" stop-color="rgb(85.992432%, 52.633667%, 100%)" offset="0.855469"/><stop stop-opacity="1" stop-color="rgb(86.306763%, 52.452087%, 100%)" offset="0.859375"/><stop stop-opacity="1" stop-color="rgb(86.619568%, 52.270508%, 100%)" offset="0.863281"/><stop stop-opacity="1" stop-color="rgb(86.933899%, 52.088928%, 100%)" offset="0.867188"/><stop stop-opacity="1" stop-color="rgb(87.246704%, 51.905823%, 100%)" offset="0.871094"/><stop stop-opacity="1" stop-color="rgb(87.561035%, 51.724243%, 100%)" offset="0.875"/><stop stop-opacity="1" stop-color="rgb(87.875366%, 51.541138%, 100%)" offset="0.878906"/><stop stop-opacity="1" stop-color="rgb(88.189697%, 51.359558%, 100%)" offset="0.882812"/><stop stop-opacity="1" stop-color="rgb(88.502502%, 51.177979%, 100%)" offset="0.886719"/><stop stop-opacity="1" stop-color="rgb(88.816833%, 50.996399%, 100%)" offset="0.890625"/><stop stop-opacity="1" stop-color="rgb(89.129639%, 50.813293%, 100%)" offset="0.894531"/><stop stop-opacity="1" stop-color="rgb(89.44397%, 50.631714%, 100%)" offset="0.898438"/><stop stop-opacity="1" stop-color="rgb(89.756775%, 50.450134%, 100%)" offset="0.902344"/><stop stop-opacity="1" stop-color="rgb(90.071106%, 50.268555%, 100%)" offset="0.90625"/><stop stop-opacity="1" stop-color="rgb(90.383911%, 50.085449%, 100%)" offset="0.910156"/><stop stop-opacity="1" stop-color="rgb(90.698242%, 49.90387%, 100%)" offset="0.914062"/><stop stop-opacity="1" stop-color="rgb(91.011047%, 49.720764%, 100%)" offset="0.917969"/><stop stop-opacity="1" stop-color="rgb(91.325378%, 49.539185%, 100%)" offset="0.921875"/><stop stop-opacity="1" stop-color="rgb(91.638184%, 49.357605%, 100%)" offset="0.925781"/><stop stop-opacity="1" stop-color="rgb(91.952515%, 49.176025%, 100%)" offset="0.929688"/><stop stop-opacity="1" stop-color="rgb(92.266846%, 48.99292%, 100%)" offset="0.933594"/><stop stop-opacity="1" stop-color="rgb(92.581177%, 48.81134%, 100%)" offset="0.9375"/><stop stop-opacity="1" stop-color="rgb(92.893982%, 48.629761%, 100%)" offset="0.941406"/><stop stop-opacity="1" stop-color="rgb(93.208313%, 48.448181%, 100%)" offset="0.945312"/><stop stop-opacity="1" stop-color="rgb(93.521118%, 48.265076%, 100%)" offset="0.949219"/><stop stop-opacity="1" stop-color="rgb(93.835449%, 48.083496%, 100%)" offset="0.953125"/><stop stop-opacity="1" stop-color="rgb(94.148254%, 47.900391%, 100%)" offset="0.957031"/><stop stop-opacity="1" stop-color="rgb(94.462585%, 47.718811%, 100%)" offset="0.960938"/><stop stop-opacity="1" stop-color="rgb(94.775391%, 47.537231%, 100%)" offset="0.964844"/><stop stop-opacity="1" stop-color="rgb(95.089722%, 47.355652%, 100%)" offset="0.96875"/><stop stop-opacity="1" stop-color="rgb(95.402527%, 47.172546%, 100%)" offset="0.972656"/><stop stop-opacity="1" stop-color="rgb(95.716858%, 46.990967%, 100%)" offset="0.976562"/><stop stop-opacity="1" stop-color="rgb(96.029663%, 46.809387%, 100%)" offset="0.980469"/><stop stop-opacity="1" stop-color="rgb(96.343994%, 46.627808%, 100%)" offset="0.984375"/><stop stop-opacity="1" stop-color="rgb(96.656799%, 46.444702%, 100%)" offset="0.988281"/><stop stop-opacity="1" stop-color="rgb(96.97113%, 46.263123%, 100%)" offset="0.992188"/><stop stop-opacity="1" stop-color="rgb(97.285461%, 46.081543%, 100%)" offset="0.996094"/><stop stop-opacity="1" stop-color="rgb(97.599792%, 45.899963%, 100%)" offset="1"/></linearGradient><clipPath id="0045a21639"><path d="M 7365.65625 8270.027344 L 10646.816406 8270.027344 L 10646.816406 11551.183594 L 7365.65625 11551.183594 Z M 7365.65625 8270.027344 " clip-rule="nonzero"/></clipPath></defs><g clip-path="url(#95e4d24e3e)"><g clip-path="url(#63cc4754ad)"><path fill="url(#ec5c275d16)" d="M 27.296875 28.039062 L 27.296875 19788.582031 L 17980.324219 19788.582031 L 17980.324219 28.039062 Z M 27.296875 28.039062 " fill-rule="nonzero"/></g></g><g clip-path="url(#0045a21639)"><path fill="#ffffff" d="M 9006.277344 8270.027344 C 8100.984375 8270.027344 7365.65625 9005.351562 7365.65625 9910.644531 C 7365.65625 10815.941406 8100.984375 11551.265625 9006.277344 11551.265625 C 9911.570312 11551.265625 10646.898438 10815.941406 10646.898438 9910.644531 C 10646.898438 9005.351562 9911.570312 8270.027344 9006.277344 8270.027344 Z M 9006.277344 8412.6875 C 9834.390625 8412.6875 10504.234375 9082.535156 10504.234375 9910.644531 C 10504.234375 10738.757812 9834.390625 11408.605469 9006.277344 11408.605469 C 8178.164062 11408.605469 7508.320312 10738.757812 7508.320312 9910.644531 C 7508.320312 9082.535156 8178.164062 8412.6875 9006.277344 8412.6875 Z M 9006.277344 8626.683594 C 8849.402344 8626.683594 8720.953125 8755.132812 8720.953125 8912.007812 C 8720.953125 9068.882812 8849.402344 9197.332031 9006.277344 9197.332031 C 9163.152344 9197.332031 9291.601562 9068.882812 9291.601562 8912.007812 C 9291.601562 8755.132812 9163.152344 8626.683594 9006.277344 8626.683594 Z M 9006.277344 8769.34375 C 9085.96875 8769.34375 9148.941406 8832.316406 9148.941406 8912.007812 C 9148.941406 8991.699219 9085.96875 9054.671875 9006.277344 9054.671875 C 8926.585938 9054.671875 8863.613281 8991.699219 8863.613281 8912.007812 C 8863.613281 8832.316406 8926.585938 8769.34375 9006.277344 8769.34375 Z M 8136.925781 9157.210938 C 8064.480469 9162.78125 7998.164062 9209.871094 7974.203125 9282.039062 C 7942.4375 9377.054688 7993.707031 9482.378906 8087.886719 9516.09375 L 8649.621094 9716.714844 L 8649.621094 10187.054688 L 8471.292969 10902.597656 C 8443.707031 11013.496094 8528.691406 11123.277344 8642.933594 11123.277344 C 8719.28125 11123.277344 8788.382812 11073.402344 8812.34375 11000.679688 L 9006.277344 10418.882812 L 9200.210938 11000.679688 C 9224.171875 11073.402344 9293.273438 11123.277344 9369.621094 11123.277344 C 9483.863281 11123.277344 9568.847656 11013.496094 9541.261719 10902.597656 L 9362.933594 10187.054688 L 9362.933594 9716.714844 L 9924.667969 9516.09375 C 10018.847656 9482.378906 10070.117188 9377.054688 10038.351562 9282.039062 C 10006.308594 9185.910156 9898.199219 9134.082031 9802.066406 9166.125 L 9282.6875 9339.996094 L 8729.867188 9339.996094 L 8210.488281 9166.125 C 8186.523438 9158.046875 8161.167969 9155.257812 8136.925781 9157.210938 Z M 8145.84375 9299.871094 C 8151.414062 9299.59375 8157.824219 9300.152344 8163.675781 9302.101562 L 8698.660156 9478.199219 L 8709.804688 9482.660156 L 9302.75 9482.660156 L 9313.894531 9478.199219 L 9848.878906 9302.101562 C 9872.003906 9294.300781 9894.574219 9305.722656 9902.378906 9328.851562 C 9909.898438 9351.699219 9898.199219 9374.269531 9875.628906 9382.347656 L 9267.082031 9598.570312 L 9220.269531 9614.175781 L 9220.269531 10204.886719 L 9403.058594 10936.035156 C 9409.1875 10960.277344 9394.421875 10980.617188 9369.621094 10980.617188 C 9354.015625 10980.617188 9338.691406 10970.863281 9333.957031 10956.097656 L 9079.835938 10198.199219 C 9079.835938 10195.972656 9079.835938 10193.742188 9079.835938 10191.511719 C 9082.625 10154.453125 9056.433594 10121.296875 9019.652344 10115.722656 C 9018.816406 10115.722656 9018.257812 10115.722656 9017.421875 10115.722656 C 9013.800781 10114.609375 9010.179688 10114.050781 9006.277344 10113.496094 C 9005.441406 10113.496094 9004.882812 10113.496094 9004.046875 10113.496094 C 9000.148438 10114.050781 8996.523438 10114.609375 8992.902344 10115.722656 C 8989 10116.28125 8985.378906 10116.839844 8981.757812 10117.953125 C 8949.433594 10128.261719 8929.09375 10160.027344 8932.71875 10193.742188 L 8678.597656 10956.097656 C 8673.863281 10970.863281 8658.539062 10980.617188 8642.933594 10980.617188 C 8618.132812 10980.617188 8603.367188 10960.277344 8609.496094 10936.035156 L 8792.285156 10204.886719 L 8792.285156 9614.175781 L 8745.472656 9598.570312 L 8136.925781 9382.347656 C 8114.355469 9374.269531 8102.65625 9351.699219 8110.175781 9328.851562 C 8116.027344 9311.574219 8129.402344 9300.988281 8145.84375 9299.871094 Z M 8145.84375 9299.871094 " fill-opacity="1" fill-rule="nonzero"/></g></svg>