<svg xmlns="http://www.w3.org/2000/svg" xmlns:xlink="http://www.w3.org/1999/xlink" width="13124" zoomAndPan="magnify" viewBox="0 0 9843 9842.999667" height="13124" preserveAspectRatio="xMidYMid meet" version="1.0"><defs><clipPath id="1c815ebdc3"><path d="M 0 0 L 9842.71875 0 L 9842.71875 9842.71875 L 0 9842.71875 Z M 0 0 " clip-rule="nonzero"/></clipPath><clipPath id="9164e9eefd"><path d="M 8155.101562 0 L 1687.617188 0 C 758.710938 0 0 758.710938 0 1687.617188 L 0 8155.101562 C 0 9084.007812 758.710938 9842.71875 1687.617188 9842.71875 L 8155.101562 9842.71875 C 9084.007812 9842.71875 9842.71875 9084.007812 9842.71875 8155.101562 L 9842.71875 1687.617188 C 9842.71875 758.710938 9084.007812 0 8155.101562 0 Z M 8155.101562 0 " clip-rule="nonzero"/></clipPath><linearGradient x1="275" gradientTransform="matrix(20.505662, 0, 0, 20.505662, -717.697989, 16958.182026)" y1="-826.999966" x2="275" gradientUnits="userSpaceOnUse" y2="-347.000009" id="44dd64707a"><stop stop-opacity="1" stop-color="rgb(7.099915%, 41.999817%, 100%)" offset="0"/><stop stop-opacity="1" stop-color="rgb(7.374573%, 41.876221%, 100%)" offset="0.00390625"/><stop stop-opacity="1" stop-color="rgb(7.650757%, 41.75415%, 100%)" offset="0.0078125"/><stop stop-opacity="1" stop-color="rgb(7.925415%, 41.630554%, 100%)" offset="0.0117188"/><stop stop-opacity="1" stop-color="rgb(8.200073%, 41.508484%, 100%)" offset="0.015625"/><stop stop-opacity="1" stop-color="rgb(8.474731%, 41.384888%, 100%)" offset="0.0195312"/><stop stop-opacity="1" stop-color="rgb(8.750916%, 41.262817%, 100%)" offset="0.0234375"/><stop stop-opacity="1" stop-color="rgb(9.025574%, 41.140747%, 100%)" offset="0.0273437"/><stop stop-opacity="1" stop-color="rgb(9.301758%, 41.018677%, 100%)" offset="0.03125"/><stop stop-opacity="1" stop-color="rgb(9.576416%, 40.895081%, 100%)" offset="0.0351562"/><stop stop-opacity="1" stop-color="rgb(9.8526%, 40.77301%, 100%)" offset="0.0390625"/><stop stop-opacity="1" stop-color="rgb(10.127258%, 40.649414%, 100%)" offset="0.0429688"/><stop stop-opacity="1" stop-color="rgb(10.403442%, 40.527344%, 100%)" offset="0.046875"/><stop stop-opacity="1" stop-color="rgb(10.678101%, 40.403748%, 100%)" offset="0.0507813"/><stop stop-opacity="1" stop-color="rgb(10.954285%, 40.281677%, 100%)" offset="0.0546875"/><stop stop-opacity="1" stop-color="rgb(11.228943%, 40.158081%, 100%)" offset="0.0585938"/><stop stop-opacity="1" stop-color="rgb(11.505127%, 40.036011%, 100%)" offset="0.0625"/><stop stop-opacity="1" stop-color="rgb(11.779785%, 39.91394%, 100%)" offset="0.0664062"/><stop stop-opacity="1" stop-color="rgb(12.055969%, 39.79187%, 100%)" offset="0.0703125"/><stop stop-opacity="1" stop-color="rgb(12.330627%, 39.668274%, 100%)" offset="0.0742187"/><stop stop-opacity="1" stop-color="rgb(12.606812%, 39.546204%, 100%)" offset="0.078125"/><stop stop-opacity="1" stop-color="rgb(12.88147%, 39.422607%, 100%)" offset="0.0820312"/><stop stop-opacity="1" stop-color="rgb(13.157654%, 39.300537%, 100%)" offset="0.0859375"/><stop stop-opacity="1" stop-color="rgb(13.432312%, 39.176941%, 100%)" offset="0.0898438"/><stop stop-opacity="1" stop-color="rgb(13.708496%, 39.054871%, 100%)" offset="0.09375"/><stop stop-opacity="1" stop-color="rgb(13.983154%, 38.9328%, 100%)" offset="0.0976562"/><stop stop-opacity="1" stop-color="rgb(14.259338%, 38.81073%, 100%)" offset="0.101562"/><stop stop-opacity="1" stop-color="rgb(14.533997%, 38.687134%, 100%)" offset="0.105469"/><stop stop-opacity="1" stop-color="rgb(14.810181%, 38.565063%, 100%)" offset="0.109375"/><stop stop-opacity="1" stop-color="rgb(15.084839%, 38.441467%, 100%)" offset="0.113281"/><stop stop-opacity="1" stop-color="rgb(15.361023%, 38.319397%, 100%)" offset="0.117187"/><stop stop-opacity="1" stop-color="rgb(15.635681%, 38.195801%, 100%)" offset="0.121094"/><stop stop-opacity="1" stop-color="rgb(15.911865%, 38.07373%, 100%)" offset="0.125"/><stop stop-opacity="1" stop-color="rgb(16.186523%, 37.95166%, 100%)" offset="0.128906"/><stop stop-opacity="1" stop-color="rgb(16.462708%, 37.82959%, 100%)" offset="0.132812"/><stop stop-opacity="1" stop-color="rgb(16.737366%, 37.705994%, 100%)" offset="0.136719"/><stop stop-opacity="1" stop-color="rgb(17.01355%, 37.583923%, 100%)" offset="0.140625"/><stop stop-opacity="1" stop-color="rgb(17.288208%, 37.460327%, 100%)" offset="0.144531"/><stop stop-opacity="1" stop-color="rgb(17.564392%, 37.338257%, 100%)" offset="0.148437"/><stop stop-opacity="1" stop-color="rgb(17.83905%, 37.214661%, 100%)" offset="0.152344"/><stop stop-opacity="1" stop-color="rgb(18.115234%, 37.09259%, 100%)" offset="0.15625"/><stop stop-opacity="1" stop-color="rgb(18.389893%, 36.968994%, 100%)" offset="0.160156"/><stop stop-opacity="1" stop-color="rgb(18.666077%, 36.846924%, 100%)" offset="0.164062"/><stop stop-opacity="1" stop-color="rgb(18.940735%, 36.724854%, 100%)" offset="0.167969"/><stop stop-opacity="1" stop-color="rgb(19.216919%, 36.602783%, 100%)" offset="0.171875"/><stop stop-opacity="1" stop-color="rgb(19.491577%, 36.479187%, 100%)" offset="0.175781"/><stop stop-opacity="1" stop-color="rgb(19.767761%, 36.357117%, 100%)" offset="0.179688"/><stop stop-opacity="1" stop-color="rgb(20.042419%, 36.233521%, 100%)" offset="0.183594"/><stop stop-opacity="1" stop-color="rgb(20.318604%, 36.11145%, 100%)" offset="0.1875"/><stop stop-opacity="1" stop-color="rgb(20.593262%, 35.987854%, 100%)" offset="0.191406"/><stop stop-opacity="1" stop-color="rgb(20.869446%, 35.865784%, 100%)" offset="0.195312"/><stop stop-opacity="1" stop-color="rgb(21.144104%, 35.743713%, 100%)" offset="0.199219"/><stop stop-opacity="1" stop-color="rgb(21.420288%, 35.621643%, 100%)" offset="0.203125"/><stop stop-opacity="1" stop-color="rgb(21.694946%, 35.498047%, 100%)" offset="0.207031"/><stop stop-opacity="1" stop-color="rgb(21.969604%, 35.375977%, 100%)" offset="0.210938"/><stop stop-opacity="1" stop-color="rgb(22.244263%, 35.25238%, 100%)" offset="0.214844"/><stop stop-opacity="1" stop-color="rgb(22.520447%, 35.13031%, 100%)" offset="0.21875"/><stop stop-opacity="1" stop-color="rgb(22.795105%, 35.006714%, 100%)" offset="0.222656"/><stop stop-opacity="1" stop-color="rgb(23.071289%, 34.884644%, 100%)" offset="0.226562"/><stop stop-opacity="1" stop-color="rgb(23.345947%, 34.762573%, 100%)" offset="0.230469"/><stop stop-opacity="1" stop-color="rgb(23.622131%, 34.640503%, 100%)" offset="0.234375"/><stop stop-opacity="1" stop-color="rgb(23.89679%, 34.516907%, 100%)" offset="0.238281"/><stop stop-opacity="1" stop-color="rgb(24.172974%, 34.394836%, 100%)" offset="0.242187"/><stop stop-opacity="1" stop-color="rgb(24.447632%, 34.27124%, 100%)" offset="0.246094"/><stop stop-opacity="1" stop-color="rgb(24.723816%, 34.14917%, 100%)" offset="0.25"/><stop stop-opacity="1" stop-color="rgb(24.998474%, 34.025574%, 100%)" offset="0.253906"/><stop stop-opacity="1" stop-color="rgb(25.274658%, 33.903503%, 100%)" offset="0.257812"/><stop stop-opacity="1" stop-color="rgb(25.549316%, 33.781433%, 100%)" offset="0.261719"/><stop stop-opacity="1" stop-color="rgb(25.8255%, 33.659363%, 100%)" offset="0.265625"/><stop stop-opacity="1" stop-color="rgb(26.100159%, 33.535767%, 100%)" offset="0.269531"/><stop stop-opacity="1" stop-color="rgb(26.376343%, 33.413696%, 100%)" offset="0.273438"/><stop stop-opacity="1" stop-color="rgb(26.651001%, 33.2901%, 100%)" offset="0.277344"/><stop stop-opacity="1" stop-color="rgb(26.927185%, 33.16803%, 100%)" offset="0.28125"/><stop stop-opacity="1" stop-color="rgb(27.201843%, 33.044434%, 100%)" offset="0.285156"/><stop stop-opacity="1" stop-color="rgb(27.478027%, 32.922363%, 100%)" offset="0.289062"/><stop stop-opacity="1" stop-color="rgb(27.752686%, 32.798767%, 100%)" offset="0.292969"/><stop stop-opacity="1" stop-color="rgb(28.02887%, 32.676697%, 100%)" offset="0.296875"/><stop stop-opacity="1" stop-color="rgb(28.303528%, 32.554626%, 100%)" offset="0.300781"/><stop stop-opacity="1" stop-color="rgb(28.579712%, 32.432556%, 100%)" offset="0.304688"/><stop stop-opacity="1" stop-color="rgb(28.85437%, 32.30896%, 100%)" offset="0.308594"/><stop stop-opacity="1" stop-color="rgb(29.130554%, 32.18689%, 100%)" offset="0.3125"/><stop stop-opacity="1" stop-color="rgb(29.405212%, 32.063293%, 100%)" offset="0.316406"/><stop stop-opacity="1" stop-color="rgb(29.681396%, 31.941223%, 100%)" offset="0.320312"/><stop stop-opacity="1" stop-color="rgb(29.956055%, 31.817627%, 100%)" offset="0.324219"/><stop stop-opacity="1" stop-color="rgb(30.232239%, 31.695557%, 100%)" offset="0.328125"/><stop stop-opacity="1" stop-color="rgb(30.506897%, 31.573486%, 100%)" offset="0.332031"/><stop stop-opacity="1" stop-color="rgb(30.783081%, 31.451416%, 100%)" offset="0.335938"/><stop stop-opacity="1" stop-color="rgb(31.057739%, 31.32782%, 100%)" offset="0.339844"/><stop stop-opacity="1" stop-color="rgb(31.333923%, 31.20575%, 100%)" offset="0.34375"/><stop stop-opacity="1" stop-color="rgb(31.608582%, 31.082153%, 100%)" offset="0.347656"/><stop stop-opacity="1" stop-color="rgb(31.884766%, 30.960083%, 100%)" offset="0.351563"/><stop stop-opacity="1" stop-color="rgb(32.159424%, 30.836487%, 100%)" offset="0.355469"/><stop stop-opacity="1" stop-color="rgb(32.435608%, 30.714417%, 100%)" offset="0.359375"/><stop stop-opacity="1" stop-color="rgb(32.710266%, 30.592346%, 100%)" offset="0.363281"/><stop stop-opacity="1" stop-color="rgb(32.98645%, 30.470276%, 100%)" offset="0.367188"/><stop stop-opacity="1" stop-color="rgb(33.261108%, 30.34668%, 100%)" offset="0.371094"/><stop stop-opacity="1" stop-color="rgb(33.537292%, 30.224609%, 100%)" offset="0.375"/><stop stop-opacity="1" stop-color="rgb(33.811951%, 30.101013%, 100%)" offset="0.378906"/><stop stop-opacity="1" stop-color="rgb(34.088135%, 29.978943%, 100%)" offset="0.382812"/><stop stop-opacity="1" stop-color="rgb(34.362793%, 29.855347%, 100%)" offset="0.386719"/><stop stop-opacity="1" stop-color="rgb(34.638977%, 29.733276%, 100%)" offset="0.390625"/><stop stop-opacity="1" stop-color="rgb(34.913635%, 29.60968%, 100%)" offset="0.394531"/><stop stop-opacity="1" stop-color="rgb(35.189819%, 29.48761%, 100%)" offset="0.398437"/><stop stop-opacity="1" stop-color="rgb(35.464478%, 29.36554%, 100%)" offset="0.402344"/><stop stop-opacity="1" stop-color="rgb(35.739136%, 29.243469%, 100%)" offset="0.40625"/><stop stop-opacity="1" stop-color="rgb(36.013794%, 29.119873%, 100%)" offset="0.410156"/><stop stop-opacity="1" stop-color="rgb(36.289978%, 28.997803%, 100%)" offset="0.414062"/><stop stop-opacity="1" stop-color="rgb(36.564636%, 28.874207%, 100%)" offset="0.417969"/><stop stop-opacity="1" stop-color="rgb(36.84082%, 28.752136%, 100%)" offset="0.421875"/><stop stop-opacity="1" stop-color="rgb(37.115479%, 28.62854%, 100%)" offset="0.425781"/><stop stop-opacity="1" stop-color="rgb(37.391663%, 28.50647%, 100%)" offset="0.429687"/><stop stop-opacity="1" stop-color="rgb(37.666321%, 28.384399%, 100%)" offset="0.433594"/><stop stop-opacity="1" stop-color="rgb(37.942505%, 28.262329%, 100%)" offset="0.4375"/><stop stop-opacity="1" stop-color="rgb(38.217163%, 28.138733%, 100%)" offset="0.441406"/><stop stop-opacity="1" stop-color="rgb(38.493347%, 28.016663%, 100%)" offset="0.445312"/><stop stop-opacity="1" stop-color="rgb(38.768005%, 27.893066%, 100%)" offset="0.449219"/><stop stop-opacity="1" stop-color="rgb(39.044189%, 27.770996%, 100%)" offset="0.453125"/><stop stop-opacity="1" stop-color="rgb(39.318848%, 27.6474%, 100%)" offset="0.457031"/><stop stop-opacity="1" stop-color="rgb(39.595032%, 27.52533%, 100%)" offset="0.460938"/><stop stop-opacity="1" stop-color="rgb(39.86969%, 27.403259%, 100%)" offset="0.464844"/><stop stop-opacity="1" stop-color="rgb(40.145874%, 27.281189%, 100%)" offset="0.46875"/><stop stop-opacity="1" stop-color="rgb(40.420532%, 27.157593%, 100%)" offset="0.472656"/><stop stop-opacity="1" stop-color="rgb(40.696716%, 27.035522%, 100%)" offset="0.476562"/><stop stop-opacity="1" stop-color="rgb(40.971375%, 26.911926%, 100%)" offset="0.480469"/><stop stop-opacity="1" stop-color="rgb(41.247559%, 26.789856%, 100%)" offset="0.484375"/><stop stop-opacity="1" stop-color="rgb(41.522217%, 26.66626%, 100%)" offset="0.488281"/><stop stop-opacity="1" stop-color="rgb(41.798401%, 26.544189%, 100%)" offset="0.492188"/><stop stop-opacity="1" stop-color="rgb(42.073059%, 26.420593%, 100%)" offset="0.496094"/><stop stop-opacity="1" stop-color="rgb(42.349243%, 26.298523%, 100%)" offset="0.5"/><stop stop-opacity="1" stop-color="rgb(42.623901%, 26.176453%, 100%)" offset="0.503906"/><stop stop-opacity="1" stop-color="rgb(42.900085%, 26.054382%, 100%)" offset="0.507812"/><stop stop-opacity="1" stop-color="rgb(43.174744%, 25.930786%, 100%)" offset="0.511719"/><stop stop-opacity="1" stop-color="rgb(43.450928%, 25.808716%, 100%)" offset="0.515625"/><stop stop-opacity="1" stop-color="rgb(43.725586%, 25.68512%, 100%)" offset="0.519531"/><stop stop-opacity="1" stop-color="rgb(44.00177%, 25.563049%, 100%)" offset="0.523438"/><stop stop-opacity="1" stop-color="rgb(44.276428%, 25.439453%, 100%)" offset="0.527344"/><stop stop-opacity="1" stop-color="rgb(44.552612%, 25.317383%, 100%)" offset="0.53125"/><stop stop-opacity="1" stop-color="rgb(44.827271%, 25.195312%, 100%)" offset="0.535156"/><stop stop-opacity="1" stop-color="rgb(45.103455%, 25.073242%, 100%)" offset="0.539062"/><stop stop-opacity="1" stop-color="rgb(45.378113%, 24.949646%, 100%)" offset="0.542969"/><stop stop-opacity="1" stop-color="rgb(45.654297%, 24.827576%, 100%)" offset="0.546875"/><stop stop-opacity="1" stop-color="rgb(45.928955%, 24.703979%, 100%)" offset="0.550781"/><stop stop-opacity="1" stop-color="rgb(46.205139%, 24.581909%, 100%)" offset="0.554687"/><stop stop-opacity="1" stop-color="rgb(46.479797%, 24.458313%, 100%)" offset="0.558594"/><stop stop-opacity="1" stop-color="rgb(46.755981%, 24.336243%, 100%)" offset="0.5625"/><stop stop-opacity="1" stop-color="rgb(47.03064%, 24.214172%, 100%)" offset="0.566406"/><stop stop-opacity="1" stop-color="rgb(47.306824%, 24.092102%, 100%)" offset="0.570312"/><stop stop-opacity="1" stop-color="rgb(47.581482%, 23.968506%, 100%)" offset="0.574219"/><stop stop-opacity="1" stop-color="rgb(47.857666%, 23.846436%, 100%)" offset="0.578125"/><stop stop-opacity="1" stop-color="rgb(48.132324%, 23.722839%, 100%)" offset="0.582031"/><stop stop-opacity="1" stop-color="rgb(48.408508%, 23.600769%, 100%)" offset="0.585937"/><stop stop-opacity="1" stop-color="rgb(48.683167%, 23.477173%, 100%)" offset="0.589844"/><stop stop-opacity="1" stop-color="rgb(48.959351%, 23.355103%, 100%)" offset="0.59375"/><stop stop-opacity="1" stop-color="rgb(49.234009%, 23.231506%, 100%)" offset="0.597656"/><stop stop-opacity="1" stop-color="rgb(49.508667%, 23.109436%, 100%)" offset="0.601563"/><stop stop-opacity="1" stop-color="rgb(49.783325%, 22.987366%, 100%)" offset="0.605469"/><stop stop-opacity="1" stop-color="rgb(50.059509%, 22.865295%, 100%)" offset="0.609375"/><stop stop-opacity="1" stop-color="rgb(50.334167%, 22.741699%, 100%)" offset="0.613281"/><stop stop-opacity="1" stop-color="rgb(50.610352%, 22.619629%, 100%)" offset="0.617188"/><stop stop-opacity="1" stop-color="rgb(50.88501%, 22.496033%, 100%)" offset="0.621094"/><stop stop-opacity="1" stop-color="rgb(51.161194%, 22.373962%, 100%)" offset="0.625"/><stop stop-opacity="1" stop-color="rgb(51.435852%, 22.250366%, 100%)" offset="0.628906"/><stop stop-opacity="1" stop-color="rgb(51.712036%, 22.128296%, 100%)" offset="0.632813"/><stop stop-opacity="1" stop-color="rgb(51.986694%, 22.006226%, 100%)" offset="0.636719"/><stop stop-opacity="1" stop-color="rgb(52.262878%, 21.884155%, 100%)" offset="0.640625"/><stop stop-opacity="1" stop-color="rgb(52.537537%, 21.760559%, 100%)" offset="0.644531"/><stop stop-opacity="1" stop-color="rgb(52.813721%, 21.638489%, 100%)" offset="0.648438"/><stop stop-opacity="1" stop-color="rgb(53.088379%, 21.514893%, 100%)" offset="0.652344"/><stop stop-opacity="1" stop-color="rgb(53.364563%, 21.392822%, 100%)" offset="0.65625"/><stop stop-opacity="1" stop-color="rgb(53.639221%, 21.269226%, 100%)" offset="0.660156"/><stop stop-opacity="1" stop-color="rgb(53.915405%, 21.147156%, 100%)" offset="0.664063"/><stop stop-opacity="1" stop-color="rgb(54.190063%, 21.025085%, 100%)" offset="0.667969"/><stop stop-opacity="1" stop-color="rgb(54.466248%, 20.903015%, 100%)" offset="0.671875"/><stop stop-opacity="1" stop-color="rgb(54.740906%, 20.779419%, 100%)" offset="0.675781"/><stop stop-opacity="1" stop-color="rgb(55.01709%, 20.657349%, 100%)" offset="0.679688"/><stop stop-opacity="1" stop-color="rgb(55.291748%, 20.533752%, 100%)" offset="0.683594"/><stop stop-opacity="1" stop-color="rgb(55.567932%, 20.411682%, 100%)" offset="0.6875"/><stop stop-opacity="1" stop-color="rgb(55.84259%, 20.288086%, 100%)" offset="0.691406"/><stop stop-opacity="1" stop-color="rgb(56.118774%, 20.166016%, 100%)" offset="0.695313"/><stop stop-opacity="1" stop-color="rgb(56.393433%, 20.042419%, 100%)" offset="0.699219"/><stop stop-opacity="1" stop-color="rgb(56.669617%, 19.920349%, 100%)" offset="0.703125"/><stop stop-opacity="1" stop-color="rgb(56.944275%, 19.798279%, 100%)" offset="0.707031"/><stop stop-opacity="1" stop-color="rgb(57.220459%, 19.676208%, 100%)" offset="0.710938"/><stop stop-opacity="1" stop-color="rgb(57.495117%, 19.552612%, 100%)" offset="0.714844"/><stop stop-opacity="1" stop-color="rgb(57.771301%, 19.430542%, 100%)" offset="0.71875"/><stop stop-opacity="1" stop-color="rgb(58.045959%, 19.306946%, 100%)" offset="0.722656"/><stop stop-opacity="1" stop-color="rgb(58.322144%, 19.184875%, 100%)" offset="0.726563"/><stop stop-opacity="1" stop-color="rgb(58.596802%, 19.061279%, 100%)" offset="0.730469"/><stop stop-opacity="1" stop-color="rgb(58.872986%, 18.939209%, 100%)" offset="0.734375"/><stop stop-opacity="1" stop-color="rgb(59.147644%, 18.817139%, 100%)" offset="0.738281"/><stop stop-opacity="1" stop-color="rgb(59.423828%, 18.695068%, 100%)" offset="0.742188"/><stop stop-opacity="1" stop-color="rgb(59.698486%, 18.571472%, 100%)" offset="0.746094"/><stop stop-opacity="1" stop-color="rgb(59.97467%, 18.449402%, 100%)" offset="0.75"/><stop stop-opacity="1" stop-color="rgb(60.249329%, 18.325806%, 100%)" offset="0.753906"/><stop stop-opacity="1" stop-color="rgb(60.525513%, 18.203735%, 100%)" offset="0.757813"/><stop stop-opacity="1" stop-color="rgb(60.800171%, 18.080139%, 100%)" offset="0.761719"/><stop stop-opacity="1" stop-color="rgb(61.076355%, 17.958069%, 100%)" offset="0.765625"/><stop stop-opacity="1" stop-color="rgb(61.351013%, 17.835999%, 100%)" offset="0.769531"/><stop stop-opacity="1" stop-color="rgb(61.627197%, 17.713928%, 100%)" offset="0.773438"/><stop stop-opacity="1" stop-color="rgb(61.901855%, 17.590332%, 100%)" offset="0.777344"/><stop stop-opacity="1" stop-color="rgb(62.17804%, 17.468262%, 100%)" offset="0.78125"/><stop stop-opacity="1" stop-color="rgb(62.452698%, 17.344666%, 100%)" offset="0.785156"/><stop stop-opacity="1" stop-color="rgb(62.728882%, 17.222595%, 100%)" offset="0.789063"/><stop stop-opacity="1" stop-color="rgb(63.00354%, 17.098999%, 100%)" offset="0.792969"/><stop stop-opacity="1" stop-color="rgb(63.278198%, 16.976929%, 100%)" offset="0.796875"/><stop stop-opacity="1" stop-color="rgb(63.552856%, 16.854858%, 100%)" offset="0.800781"/><stop stop-opacity="1" stop-color="rgb(63.829041%, 16.732788%, 100%)" offset="0.804688"/><stop stop-opacity="1" stop-color="rgb(64.103699%, 16.609192%, 100%)" offset="0.808594"/><stop stop-opacity="1" stop-color="rgb(64.379883%, 16.487122%, 100%)" offset="0.8125"/><stop stop-opacity="1" stop-color="rgb(64.654541%, 16.363525%, 100%)" offset="0.816406"/><stop stop-opacity="1" stop-color="rgb(64.930725%, 16.241455%, 100%)" offset="0.820313"/><stop stop-opacity="1" stop-color="rgb(65.205383%, 16.117859%, 100%)" offset="0.824219"/><stop stop-opacity="1" stop-color="rgb(65.481567%, 15.995789%, 100%)" offset="0.828125"/><stop stop-opacity="1" stop-color="rgb(65.756226%, 15.872192%, 100%)" offset="0.832031"/><stop stop-opacity="1" stop-color="rgb(66.03241%, 15.750122%, 100%)" offset="0.835938"/><stop stop-opacity="1" stop-color="rgb(66.307068%, 15.628052%, 100%)" offset="0.839844"/><stop stop-opacity="1" stop-color="rgb(66.583252%, 15.505981%, 100%)" offset="0.84375"/><stop stop-opacity="1" stop-color="rgb(66.85791%, 15.382385%, 100%)" offset="0.847656"/><stop stop-opacity="1" stop-color="rgb(67.134094%, 15.260315%, 100%)" offset="0.851563"/><stop stop-opacity="1" stop-color="rgb(67.408752%, 15.136719%, 100%)" offset="0.855469"/><stop stop-opacity="1" stop-color="rgb(67.684937%, 15.014648%, 100%)" offset="0.859375"/><stop stop-opacity="1" stop-color="rgb(67.959595%, 14.891052%, 100%)" offset="0.863281"/><stop stop-opacity="1" stop-color="rgb(68.235779%, 14.768982%, 100%)" offset="0.867188"/><stop stop-opacity="1" stop-color="rgb(68.510437%, 14.646912%, 100%)" offset="0.871094"/><stop stop-opacity="1" stop-color="rgb(68.786621%, 14.524841%, 100%)" offset="0.875"/><stop stop-opacity="1" stop-color="rgb(69.061279%, 14.401245%, 100%)" offset="0.878906"/><stop stop-opacity="1" stop-color="rgb(69.337463%, 14.279175%, 100%)" offset="0.882812"/><stop stop-opacity="1" stop-color="rgb(69.612122%, 14.155579%, 100%)" offset="0.886719"/><stop stop-opacity="1" stop-color="rgb(69.888306%, 14.033508%, 100%)" offset="0.890625"/><stop stop-opacity="1" stop-color="rgb(70.162964%, 13.909912%, 100%)" offset="0.894531"/><stop stop-opacity="1" stop-color="rgb(70.439148%, 13.787842%, 100%)" offset="0.898438"/><stop stop-opacity="1" stop-color="rgb(70.713806%, 13.665771%, 100%)" offset="0.902344"/><stop stop-opacity="1" stop-color="rgb(70.98999%, 13.543701%, 100%)" offset="0.90625"/><stop stop-opacity="1" stop-color="rgb(71.264648%, 13.420105%, 100%)" offset="0.910156"/><stop stop-opacity="1" stop-color="rgb(71.540833%, 13.298035%, 100%)" offset="0.914062"/><stop stop-opacity="1" stop-color="rgb(71.815491%, 13.174438%, 100%)" offset="0.917969"/><stop stop-opacity="1" stop-color="rgb(72.091675%, 13.052368%, 100%)" offset="0.921875"/><stop stop-opacity="1" stop-color="rgb(72.366333%, 12.928772%, 100%)" offset="0.925781"/><stop stop-opacity="1" stop-color="rgb(72.642517%, 12.806702%, 100%)" offset="0.929687"/><stop stop-opacity="1" stop-color="rgb(72.917175%, 12.683105%, 100%)" offset="0.933594"/><stop stop-opacity="1" stop-color="rgb(73.193359%, 12.561035%, 100%)" offset="0.9375"/><stop stop-opacity="1" stop-color="rgb(73.468018%, 12.438965%, 100%)" offset="0.941406"/><stop stop-opacity="1" stop-color="rgb(73.744202%, 12.316895%, 100%)" offset="0.945312"/><stop stop-opacity="1" stop-color="rgb(74.01886%, 12.193298%, 100%)" offset="0.949219"/><stop stop-opacity="1" stop-color="rgb(74.295044%, 12.071228%, 100%)" offset="0.953125"/><stop stop-opacity="1" stop-color="rgb(74.569702%, 11.947632%, 100%)" offset="0.957031"/><stop stop-opacity="1" stop-color="rgb(74.845886%, 11.825562%, 100%)" offset="0.960937"/><stop stop-opacity="1" stop-color="rgb(75.120544%, 11.701965%, 100%)" offset="0.964844"/><stop stop-opacity="1" stop-color="rgb(75.396729%, 11.579895%, 100%)" offset="0.96875"/><stop stop-opacity="1" stop-color="rgb(75.671387%, 11.457825%, 100%)" offset="0.972656"/><stop stop-opacity="1" stop-color="rgb(75.947571%, 11.335754%, 100%)" offset="0.976562"/><stop stop-opacity="1" stop-color="rgb(76.222229%, 11.212158%, 100%)" offset="0.980469"/><stop stop-opacity="1" stop-color="rgb(76.498413%, 11.090088%, 100%)" offset="0.984375"/><stop stop-opacity="1" stop-color="rgb(76.773071%, 10.966492%, 100%)" offset="0.988281"/><stop stop-opacity="1" stop-color="rgb(77.047729%, 10.844421%, 100%)" offset="0.992187"/><stop stop-opacity="1" stop-color="rgb(77.322388%, 10.720825%, 100%)" offset="0.996094"/><stop stop-opacity="1" stop-color="rgb(77.598572%, 10.598755%, 100%)" offset="1"/></linearGradient><clipPath id="3f412776b0"><path d="M 3903.707031 3250 L 6090.570312 3250 L 6090.570312 5436.859375 L 3903.707031 5436.859375 Z M 3903.707031 3250 " clip-rule="nonzero"/></clipPath></defs><g clip-path="url(#1c815ebdc3)"><g clip-path="url(#9164e9eefd)"><path fill="url(#44dd64707a)" d="M 0 0 L 0 9842.71875 L 9842.71875 9842.71875 L 9842.71875 0 Z M 0 0 " fill-rule="nonzero"/></g></g><path fill="#ffffff" d="M 1343.121094 8251.476562 C 1343.121094 8419.625 1478.457031 8554.960938 1646.605469 8554.960938 L 8198.164062 8554.960938 C 8366.308594 8554.960938 8501.648438 8419.625 8501.648438 8251.476562 L 8501.648438 2952.816406 L 1345.171875 2952.816406 L 1345.171875 8251.476562 Z M 6309.59375 3615.148438 C 6309.59375 3565.933594 6348.554688 3526.972656 6397.765625 3526.972656 L 7933.640625 3526.972656 C 7980.804688 3526.972656 8021.816406 3565.933594 8021.816406 3615.148438 L 8021.816406 6098.382812 C 8021.816406 6145.546875 7982.855469 6186.558594 7933.640625 6186.558594 L 6397.765625 6186.558594 C 6350.605469 6186.558594 6309.59375 6147.597656 6309.59375 6098.382812 Z M 6309.59375 6797.625 C 6309.59375 6750.464844 6348.554688 6709.453125 6397.765625 6709.453125 L 7933.640625 6709.453125 C 7980.804688 6709.453125 8021.816406 6748.414062 8021.816406 6797.625 L 8021.816406 8099.734375 C 8021.816406 8146.898438 7982.855469 8187.910156 7933.640625 8187.910156 L 6397.765625 8187.910156 C 6350.605469 8187.910156 6309.59375 8148.949219 6309.59375 8099.734375 Z M 4550.207031 5477.0625 L 4550.207031 6157.851562 L 5230.996094 6157.851562 C 5280.207031 6157.851562 5319.167969 6196.8125 5319.167969 6246.023438 L 5319.167969 7781.898438 C 5319.167969 7829.0625 5280.207031 7870.074219 5230.996094 7870.074219 L 3695.121094 7870.074219 C 3647.957031 7870.074219 3606.945312 7831.113281 3606.945312 7781.898438 L 3606.945312 7101.109375 L 2926.160156 7101.109375 C 2878.996094 7101.109375 2837.984375 7062.148438 2837.984375 7012.9375 L 2837.984375 5477.0625 C 2837.984375 5429.898438 2876.945312 5388.886719 2926.160156 5388.886719 L 4462.03125 5388.886719 C 4511.246094 5388.886719 4550.207031 5429.898438 4550.207031 5477.0625 Z M 1822.953125 3455.203125 C 1822.953125 3408.039062 1861.914062 3367.03125 1911.128906 3367.03125 L 3447.003906 3367.03125 C 3494.164062 3367.03125 3535.175781 3405.988281 3535.175781 3455.203125 L 3535.175781 4757.3125 C 3535.175781 4804.476562 3496.214844 4845.488281 3447.003906 4845.488281 L 1911.128906 4845.488281 C 1863.964844 4845.488281 1822.953125 4806.527344 1822.953125 4757.3125 Z M 1822.953125 3455.203125 " fill-opacity="1" fill-rule="nonzero"/><path fill="#ffffff" d="M 3783.292969 7693.722656 L 5144.871094 7693.722656 L 5144.871094 6332.148438 L 4552.257812 6332.148438 L 4552.257812 7012.9375 C 4552.257812 7060.097656 4513.296875 7101.109375 4464.082031 7101.109375 L 3783.292969 7101.109375 Z M 3783.292969 7693.722656 " fill-opacity="1" fill-rule="nonzero"/><path fill="#ffffff" d="M 8196.113281 1287.753906 L 1646.605469 1287.753906 C 1478.457031 1287.753906 1343.121094 1423.09375 1343.121094 1591.238281 L 1343.121094 2780.566406 L 8499.597656 2780.566406 L 8499.597656 1591.238281 C 8499.597656 1423.09375 8364.257812 1287.753906 8196.113281 1287.753906 Z M 2126.4375 2472.984375 C 1884.46875 2472.984375 1687.617188 2276.128906 1687.617188 2034.160156 C 1687.617188 1792.195312 1884.46875 1595.339844 2126.4375 1595.339844 C 2368.402344 1595.339844 2565.257812 1792.195312 2565.257812 2034.160156 C 2565.257812 2276.128906 2368.402344 2472.984375 2126.4375 2472.984375 Z M 3680.765625 2472.984375 C 3438.800781 2472.984375 3241.945312 2276.128906 3241.945312 2034.160156 C 3241.945312 1792.195312 3438.800781 1595.339844 3680.765625 1595.339844 C 3922.734375 1595.339844 4119.585938 1792.195312 4119.585938 2034.160156 C 4119.585938 2276.128906 3922.734375 2472.984375 3680.765625 2472.984375 Z M 5198.183594 2472.984375 C 4956.21875 2472.984375 4759.363281 2276.128906 4759.363281 2034.160156 C 4759.363281 1792.195312 4956.21875 1595.339844 5198.183594 1595.339844 C 5440.152344 1595.339844 5637.007812 1792.195312 5637.007812 2034.160156 C 5637.007812 2276.128906 5442.203125 2472.984375 5198.183594 2472.984375 Z M 8087.433594 2120.285156 L 6125.042969 2120.285156 C 6075.828125 2120.285156 6036.867188 2081.324219 6036.867188 2032.109375 C 6036.867188 1984.949219 6075.828125 1943.9375 6125.042969 1943.9375 L 8087.433594 1943.9375 C 8134.597656 1943.9375 8175.609375 1982.898438 8175.609375 2032.109375 C 8173.558594 2081.324219 8134.597656 2120.285156 8087.433594 2120.285156 Z M 8087.433594 2120.285156 " fill-opacity="1" fill-rule="nonzero"/><path fill="#ffffff" d="M 2390.960938 2032.109375 C 2390.960938 2036.441406 2390.855469 2040.765625 2390.640625 2045.089844 C 2390.429688 2049.414062 2390.109375 2053.730469 2389.6875 2058.039062 C 2389.261719 2062.347656 2388.730469 2066.640625 2388.097656 2070.925781 C 2387.460938 2075.207031 2386.722656 2079.472656 2385.875 2083.714844 C 2385.03125 2087.960938 2384.082031 2092.183594 2383.03125 2096.382812 C 2381.980469 2100.585938 2380.824219 2104.753906 2379.570312 2108.898438 C 2378.3125 2113.039062 2376.953125 2117.148438 2375.496094 2121.226562 C 2374.039062 2125.300781 2372.480469 2129.339844 2370.824219 2133.339844 C 2369.167969 2137.339844 2367.414062 2141.296875 2365.5625 2145.207031 C 2363.710938 2149.121094 2361.765625 2152.988281 2359.726562 2156.804688 C 2357.683594 2160.625 2355.550781 2164.390625 2353.324219 2168.101562 C 2351.101562 2171.816406 2348.785156 2175.472656 2346.378906 2179.070312 C 2343.976562 2182.671875 2341.484375 2186.210938 2338.902344 2189.6875 C 2336.324219 2193.164062 2333.664062 2196.574219 2330.917969 2199.921875 C 2328.171875 2203.269531 2325.34375 2206.546875 2322.4375 2209.753906 C 2319.527344 2212.960938 2316.542969 2216.097656 2313.484375 2219.15625 C 2310.421875 2222.21875 2307.289062 2225.203125 2304.078125 2228.109375 C 2300.871094 2231.015625 2297.59375 2233.84375 2294.25 2236.589844 C 2290.902344 2239.335938 2287.492188 2242 2284.011719 2244.578125 C 2280.535156 2247.15625 2276.996094 2249.648438 2273.398438 2252.054688 C 2269.796875 2254.460938 2266.140625 2256.773438 2262.429688 2259 C 2258.714844 2261.226562 2254.949219 2263.359375 2251.132812 2265.398438 C 2247.3125 2267.441406 2243.449219 2269.386719 2239.535156 2271.238281 C 2235.621094 2273.085938 2231.664062 2274.839844 2227.664062 2276.5 C 2223.664062 2278.15625 2219.628906 2279.710938 2215.550781 2281.171875 C 2211.476562 2282.628906 2207.367188 2283.988281 2203.222656 2285.242188 C 2199.082031 2286.5 2194.910156 2287.65625 2190.710938 2288.707031 C 2186.511719 2289.757812 2182.289062 2290.707031 2178.042969 2291.550781 C 2173.796875 2292.394531 2169.53125 2293.136719 2165.25 2293.769531 C 2160.96875 2294.40625 2156.671875 2294.9375 2152.363281 2295.359375 C 2148.058594 2295.785156 2143.742188 2296.101562 2139.417969 2296.316406 C 2135.09375 2296.527344 2130.765625 2296.632812 2126.4375 2296.632812 C 2122.109375 2296.632812 2117.78125 2296.527344 2113.457031 2296.316406 C 2109.132812 2296.101562 2104.816406 2295.785156 2100.507812 2295.359375 C 2096.203125 2294.9375 2091.90625 2294.40625 2087.625 2293.769531 C 2083.339844 2293.136719 2079.078125 2292.394531 2074.832031 2291.550781 C 2070.585938 2290.707031 2066.363281 2289.757812 2062.164062 2288.707031 C 2057.964844 2287.65625 2053.792969 2286.5 2049.648438 2285.246094 C 2045.507812 2283.988281 2041.398438 2282.628906 2037.320312 2281.171875 C 2033.246094 2279.710938 2029.207031 2278.15625 2025.207031 2276.5 C 2021.207031 2274.839844 2017.25 2273.085938 2013.339844 2271.238281 C 2009.425781 2269.386719 2005.558594 2267.441406 2001.742188 2265.398438 C 1997.921875 2263.359375 1994.160156 2261.226562 1990.445312 2259 C 1986.730469 2256.773438 1983.074219 2254.460938 1979.476562 2252.054688 C 1975.875 2249.648438 1972.335938 2247.15625 1968.859375 2244.578125 C 1965.382812 2242 1961.972656 2239.335938 1958.625 2236.589844 C 1955.277344 2233.84375 1952.003906 2231.015625 1948.792969 2228.109375 C 1945.585938 2225.203125 1942.453125 2222.21875 1939.390625 2219.15625 C 1936.328125 2216.097656 1933.34375 2212.960938 1930.4375 2209.753906 C 1927.53125 2206.546875 1924.703125 2203.269531 1921.957031 2199.921875 C 1919.210938 2196.578125 1916.550781 2193.164062 1913.96875 2189.6875 C 1911.390625 2186.210938 1908.898438 2182.671875 1906.492188 2179.070312 C 1904.089844 2175.472656 1901.773438 2171.816406 1899.546875 2168.101562 C 1897.320312 2164.390625 1895.1875 2160.625 1893.148438 2156.804688 C 1891.109375 2152.988281 1889.160156 2149.121094 1887.3125 2145.207031 C 1885.460938 2141.296875 1883.707031 2137.339844 1882.050781 2133.339844 C 1880.394531 2129.339844 1878.835938 2125.300781 1877.375 2121.226562 C 1875.917969 2117.148438 1874.5625 2113.039062 1873.304688 2108.898438 C 1872.046875 2104.753906 1870.894531 2100.585938 1869.839844 2096.382812 C 1868.789062 2092.183594 1867.839844 2087.960938 1866.996094 2083.714844 C 1866.152344 2079.472656 1865.414062 2075.207031 1864.777344 2070.925781 C 1864.140625 2066.640625 1863.613281 2062.347656 1863.1875 2058.039062 C 1862.761719 2053.730469 1862.445312 2049.414062 1862.234375 2045.089844 C 1862.019531 2040.765625 1861.914062 2036.441406 1861.914062 2032.109375 C 1861.914062 2027.78125 1862.019531 2023.457031 1862.234375 2019.132812 C 1862.445312 2014.808594 1862.761719 2010.492188 1863.1875 2006.183594 C 1863.613281 2001.875 1864.140625 1997.578125 1864.777344 1993.296875 C 1865.414062 1989.015625 1866.152344 1984.75 1866.996094 1980.503906 C 1867.839844 1976.257812 1868.789062 1972.035156 1869.839844 1967.835938 C 1870.894531 1963.636719 1872.046875 1959.46875 1873.304688 1955.324219 C 1874.5625 1951.179688 1875.917969 1947.070312 1877.375 1942.996094 C 1878.835938 1938.917969 1880.394531 1934.882812 1882.050781 1930.882812 C 1883.707031 1926.882812 1885.460938 1922.925781 1887.3125 1919.011719 C 1889.160156 1915.101562 1891.109375 1911.234375 1893.148438 1907.417969 C 1895.1875 1903.597656 1897.324219 1899.832031 1899.546875 1896.117188 C 1901.773438 1892.40625 1904.089844 1888.75 1906.492188 1885.148438 C 1908.898438 1881.550781 1911.390625 1878.011719 1913.96875 1874.535156 C 1916.550781 1871.058594 1919.210938 1867.644531 1921.957031 1864.300781 C 1924.703125 1860.953125 1927.53125 1857.675781 1930.4375 1854.46875 C 1933.34375 1851.261719 1936.328125 1848.125 1939.390625 1845.066406 C 1942.453125 1842.003906 1945.585938 1839.019531 1948.792969 1836.113281 C 1952.003906 1833.207031 1955.277344 1830.378906 1958.625 1827.632812 C 1961.972656 1824.886719 1965.382812 1822.222656 1968.859375 1819.644531 C 1972.339844 1817.066406 1975.875 1814.574219 1979.476562 1812.167969 C 1983.074219 1809.761719 1986.730469 1807.449219 1990.445312 1805.222656 C 1994.15625 1802.996094 1997.921875 1800.863281 2001.742188 1798.824219 C 2005.558594 1796.78125 2009.425781 1794.835938 2013.339844 1792.984375 C 2017.253906 1791.132812 2021.207031 1789.378906 2025.207031 1787.722656 C 2029.207031 1786.066406 2033.246094 1784.507812 2037.320312 1783.050781 C 2041.398438 1781.59375 2045.507812 1780.234375 2049.648438 1778.976562 C 2053.792969 1777.722656 2057.964844 1776.566406 2062.164062 1775.515625 C 2066.363281 1774.464844 2070.585938 1773.515625 2074.832031 1772.671875 C 2079.078125 1771.828125 2083.339844 1771.085938 2087.625 1770.453125 C 2091.90625 1769.816406 2096.203125 1769.285156 2100.507812 1768.863281 C 2104.816406 1768.4375 2109.132812 1768.121094 2113.457031 1767.90625 C 2117.78125 1767.695312 2122.109375 1767.589844 2126.4375 1767.589844 C 2130.765625 1767.589844 2135.09375 1767.695312 2139.417969 1767.90625 C 2143.742188 1768.121094 2148.054688 1768.4375 2152.363281 1768.863281 C 2156.671875 1769.285156 2160.96875 1769.816406 2165.25 1770.453125 C 2169.53125 1771.085938 2173.796875 1771.828125 2178.042969 1772.671875 C 2182.289062 1773.515625 2186.511719 1774.464844 2190.710938 1775.515625 C 2194.910156 1776.566406 2199.082031 1777.722656 2203.222656 1778.976562 C 2207.367188 1780.234375 2211.476562 1781.59375 2215.550781 1783.050781 C 2219.628906 1784.507812 2223.664062 1786.066406 2227.664062 1787.722656 C 2231.664062 1789.378906 2235.621094 1791.132812 2239.535156 1792.984375 C 2243.449219 1794.835938 2247.3125 1796.78125 2251.132812 1798.824219 C 2254.949219 1800.863281 2258.714844 1802.996094 2262.429688 1805.222656 C 2266.140625 1807.449219 2269.796875 1809.761719 2273.398438 1812.167969 C 2276.996094 1814.574219 2280.535156 1817.066406 2284.011719 1819.644531 C 2287.492188 1822.222656 2290.902344 1824.886719 2294.25 1827.632812 C 2297.59375 1830.378906 2300.871094 1833.203125 2304.078125 1836.113281 C 2307.289062 1839.019531 2310.421875 1842.003906 2313.484375 1845.066406 C 2316.542969 1848.125 2319.527344 1851.261719 2322.4375 1854.46875 C 2325.34375 1857.675781 2328.171875 1860.953125 2330.917969 1864.300781 C 2333.664062 1867.644531 2336.324219 1871.058594 2338.902344 1874.535156 C 2341.484375 1878.011719 2343.976562 1881.550781 2346.378906 1885.148438 C 2348.785156 1888.75 2351.101562 1892.40625 2353.324219 1896.117188 C 2355.550781 1899.832031 2357.683594 1903.597656 2359.726562 1907.414062 C 2361.765625 1911.234375 2363.710938 1915.097656 2365.5625 1919.011719 C 2367.414062 1922.925781 2369.167969 1926.882812 2370.824219 1930.882812 C 2372.480469 1934.882812 2374.039062 1938.917969 2375.496094 1942.996094 C 2376.953125 1947.070312 2378.3125 1951.179688 2379.570312 1955.324219 C 2380.824219 1959.46875 2381.980469 1963.636719 2383.03125 1967.835938 C 2384.082031 1972.035156 2385.03125 1976.257812 2385.875 1980.503906 C 2386.722656 1984.75 2387.460938 1989.015625 2388.097656 1993.296875 C 2388.730469 1997.578125 2389.261719 2001.875 2389.6875 2006.183594 C 2390.109375 2010.492188 2390.429688 2014.808594 2390.640625 2019.132812 C 2390.855469 2023.457031 2390.960938 2027.78125 2390.960938 2032.109375 Z M 2390.960938 2032.109375 " fill-opacity="1" fill-rule="nonzero"/><path fill="#ffffff" d="M 3945.289062 2032.109375 C 3945.289062 2036.441406 3945.183594 2040.765625 3944.972656 2045.089844 C 3944.757812 2049.414062 3944.441406 2053.730469 3944.015625 2058.039062 C 3943.589844 2062.347656 3943.0625 2066.640625 3942.425781 2070.925781 C 3941.792969 2075.207031 3941.050781 2079.472656 3940.207031 2083.714844 C 3939.363281 2087.960938 3938.414062 2092.183594 3937.363281 2096.382812 C 3936.308594 2100.585938 3935.15625 2104.753906 3933.898438 2108.898438 C 3932.640625 2113.039062 3931.285156 2117.148438 3929.824219 2121.226562 C 3928.367188 2125.300781 3926.808594 2129.339844 3925.152344 2133.339844 C 3923.496094 2137.339844 3921.742188 2141.296875 3919.890625 2145.207031 C 3918.042969 2149.121094 3916.09375 2152.988281 3914.054688 2156.804688 C 3912.015625 2160.625 3909.878906 2164.390625 3907.65625 2168.101562 C 3905.429688 2171.816406 3903.113281 2175.472656 3900.710938 2179.070312 C 3898.304688 2182.671875 3895.8125 2186.210938 3893.234375 2189.6875 C 3890.65625 2193.164062 3887.992188 2196.574219 3885.246094 2199.921875 C 3882.5 2203.269531 3879.671875 2206.546875 3876.765625 2209.753906 C 3873.859375 2212.960938 3870.875 2216.097656 3867.8125 2219.15625 C 3864.75 2222.21875 3861.617188 2225.203125 3858.410156 2228.109375 C 3855.203125 2231.015625 3851.925781 2233.84375 3848.578125 2236.589844 C 3845.230469 2239.335938 3841.820312 2242 3838.339844 2244.578125 C 3834.863281 2247.15625 3831.328125 2249.648438 3827.726562 2252.054688 C 3824.128906 2254.460938 3820.472656 2256.773438 3816.757812 2259 C 3813.042969 2261.226562 3809.277344 2263.359375 3805.460938 2265.398438 C 3801.644531 2267.441406 3797.777344 2269.386719 3793.863281 2271.238281 C 3789.949219 2273.085938 3785.992188 2274.839844 3781.996094 2276.5 C 3777.996094 2278.15625 3773.957031 2279.710938 3769.882812 2281.171875 C 3765.804688 2282.628906 3761.695312 2283.988281 3757.554688 2285.242188 C 3753.410156 2286.5 3749.238281 2287.65625 3745.039062 2288.707031 C 3740.839844 2289.757812 3736.617188 2290.707031 3732.371094 2291.550781 C 3728.125 2292.394531 3723.863281 2293.136719 3719.578125 2293.769531 C 3715.296875 2294.40625 3711.003906 2294.9375 3706.695312 2295.359375 C 3702.386719 2295.785156 3698.070312 2296.101562 3693.746094 2296.316406 C 3689.421875 2296.527344 3685.09375 2296.632812 3680.765625 2296.632812 C 3676.4375 2296.632812 3672.109375 2296.527344 3667.785156 2296.316406 C 3663.460938 2296.101562 3659.148438 2295.785156 3654.839844 2295.359375 C 3650.53125 2294.9375 3646.234375 2294.40625 3641.953125 2293.769531 C 3637.671875 2293.136719 3633.40625 2292.394531 3629.160156 2291.550781 C 3624.914062 2290.707031 3620.691406 2289.757812 3616.492188 2288.707031 C 3612.292969 2287.65625 3608.121094 2286.5 3603.980469 2285.246094 C 3599.835938 2283.988281 3595.726562 2282.628906 3591.652344 2281.171875 C 3587.574219 2279.710938 3583.535156 2278.15625 3579.535156 2276.5 C 3575.539062 2274.839844 3571.582031 2273.085938 3567.667969 2271.238281 C 3563.753906 2269.386719 3559.886719 2267.441406 3556.070312 2265.398438 C 3552.253906 2263.359375 3548.488281 2261.226562 3544.773438 2259 C 3541.058594 2256.773438 3537.402344 2254.460938 3533.804688 2252.054688 C 3530.203125 2249.648438 3526.667969 2247.15625 3523.1875 2244.578125 C 3519.710938 2242 3516.300781 2239.335938 3512.953125 2236.589844 C 3509.609375 2233.84375 3506.332031 2231.015625 3503.125 2228.109375 C 3499.914062 2225.203125 3496.78125 2222.21875 3493.71875 2219.15625 C 3490.660156 2216.097656 3487.675781 2212.960938 3484.765625 2209.753906 C 3481.859375 2206.546875 3479.035156 2203.269531 3476.285156 2199.921875 C 3473.539062 2196.578125 3470.878906 2193.164062 3468.300781 2189.6875 C 3465.71875 2186.210938 3463.226562 2182.671875 3460.824219 2179.070312 C 3458.417969 2175.472656 3456.101562 2171.816406 3453.875 2168.101562 C 3451.652344 2164.390625 3449.519531 2160.625 3447.476562 2156.804688 C 3445.4375 2152.988281 3443.492188 2149.121094 3441.640625 2145.207031 C 3439.789062 2141.296875 3438.035156 2137.339844 3436.378906 2133.339844 C 3434.722656 2129.339844 3433.164062 2125.300781 3431.707031 2121.226562 C 3430.246094 2117.148438 3428.890625 2113.039062 3427.632812 2108.898438 C 3426.375 2104.753906 3425.222656 2100.585938 3424.171875 2096.382812 C 3423.117188 2092.183594 3422.171875 2087.960938 3421.324219 2083.714844 C 3420.480469 2079.472656 3419.742188 2075.207031 3419.105469 2070.925781 C 3418.472656 2066.640625 3417.941406 2062.347656 3417.515625 2058.039062 C 3417.09375 2053.730469 3416.773438 2049.414062 3416.5625 2045.089844 C 3416.347656 2040.765625 3416.242188 2036.441406 3416.242188 2032.109375 C 3416.242188 2027.78125 3416.347656 2023.457031 3416.5625 2019.132812 C 3416.773438 2014.808594 3417.09375 2010.492188 3417.515625 2006.183594 C 3417.941406 2001.875 3418.472656 1997.578125 3419.105469 1993.296875 C 3419.742188 1989.015625 3420.480469 1984.75 3421.324219 1980.503906 C 3422.171875 1976.257812 3423.117188 1972.035156 3424.171875 1967.835938 C 3425.222656 1963.636719 3426.375 1959.46875 3427.632812 1955.324219 C 3428.890625 1951.179688 3430.246094 1947.070312 3431.707031 1942.996094 C 3433.164062 1938.917969 3434.722656 1934.882812 3436.378906 1930.882812 C 3438.035156 1926.882812 3439.789062 1922.925781 3441.640625 1919.011719 C 3443.492188 1915.101562 3445.4375 1911.234375 3447.476562 1907.417969 C 3449.519531 1903.597656 3451.652344 1899.832031 3453.875 1896.117188 C 3456.101562 1892.40625 3458.417969 1888.75 3460.824219 1885.148438 C 3463.226562 1881.550781 3465.71875 1878.011719 3468.300781 1874.535156 C 3470.878906 1871.058594 3473.539062 1867.644531 3476.285156 1864.300781 C 3479.035156 1860.953125 3481.859375 1857.675781 3484.765625 1854.46875 C 3487.675781 1851.261719 3490.660156 1848.125 3493.71875 1845.066406 C 3496.78125 1842.003906 3499.917969 1839.019531 3503.125 1836.113281 C 3506.332031 1833.207031 3509.609375 1830.378906 3512.953125 1827.632812 C 3516.300781 1824.886719 3519.710938 1822.222656 3523.1875 1819.644531 C 3526.667969 1817.066406 3530.207031 1814.574219 3533.804688 1812.167969 C 3537.402344 1809.761719 3541.058594 1807.449219 3544.773438 1805.222656 C 3548.488281 1802.996094 3552.253906 1800.863281 3556.070312 1798.824219 C 3559.890625 1796.78125 3563.753906 1794.835938 3567.667969 1792.984375 C 3571.582031 1791.132812 3575.539062 1789.378906 3579.535156 1787.722656 C 3583.535156 1786.066406 3587.574219 1784.507812 3591.652344 1783.050781 C 3595.726562 1781.59375 3599.835938 1780.234375 3603.980469 1778.976562 C 3608.121094 1777.722656 3612.292969 1776.566406 3616.492188 1775.515625 C 3620.691406 1774.464844 3624.914062 1773.515625 3629.160156 1772.671875 C 3633.40625 1771.828125 3637.671875 1771.085938 3641.953125 1770.453125 C 3646.234375 1769.816406 3650.53125 1769.285156 3654.839844 1768.863281 C 3659.148438 1768.4375 3663.460938 1768.121094 3667.785156 1767.90625 C 3672.109375 1767.695312 3676.4375 1767.589844 3680.765625 1767.589844 C 3685.09375 1767.589844 3689.421875 1767.695312 3693.746094 1767.90625 C 3698.070312 1768.121094 3702.386719 1768.4375 3706.695312 1768.863281 C 3711.003906 1769.285156 3715.296875 1769.816406 3719.578125 1770.453125 C 3723.863281 1771.085938 3728.125 1771.828125 3732.371094 1772.671875 C 3736.617188 1773.515625 3740.839844 1774.464844 3745.039062 1775.515625 C 3749.238281 1776.566406 3753.410156 1777.722656 3757.554688 1778.976562 C 3761.695312 1780.234375 3765.804688 1781.59375 3769.882812 1783.050781 C 3773.957031 1784.507812 3777.996094 1786.066406 3781.996094 1787.722656 C 3785.992188 1789.378906 3789.949219 1791.132812 3793.863281 1792.984375 C 3797.777344 1794.835938 3801.644531 1796.78125 3805.460938 1798.824219 C 3809.277344 1800.863281 3813.042969 1802.996094 3816.757812 1805.222656 C 3820.472656 1807.449219 3824.128906 1809.761719 3827.726562 1812.167969 C 3831.328125 1814.574219 3834.863281 1817.066406 3838.339844 1819.644531 C 3841.820312 1822.222656 3845.230469 1824.886719 3848.578125 1827.632812 C 3851.925781 1830.378906 3855.203125 1833.203125 3858.410156 1836.113281 C 3861.617188 1839.019531 3864.75 1842.003906 3867.8125 1845.066406 C 3870.875 1848.125 3873.859375 1851.261719 3876.765625 1854.46875 C 3879.671875 1857.675781 3882.5 1860.953125 3885.246094 1864.300781 C 3887.992188 1867.644531 3890.652344 1871.058594 3893.234375 1874.535156 C 3895.8125 1878.011719 3898.304688 1881.550781 3900.707031 1885.148438 C 3903.113281 1888.75 3905.429688 1892.40625 3907.65625 1896.117188 C 3909.878906 1899.832031 3912.015625 1903.597656 3914.054688 1907.414062 C 3916.09375 1911.234375 3918.042969 1915.097656 3919.890625 1919.011719 C 3921.742188 1922.925781 3923.496094 1926.882812 3925.152344 1930.882812 C 3926.808594 1934.882812 3928.367188 1938.917969 3929.824219 1942.996094 C 3931.285156 1947.070312 3932.640625 1951.179688 3933.898438 1955.324219 C 3935.15625 1959.46875 3936.308594 1963.636719 3937.363281 1967.835938 C 3938.414062 1972.035156 3939.363281 1976.257812 3940.207031 1980.503906 C 3941.050781 1984.75 3941.792969 1989.015625 3942.425781 1993.296875 C 3943.0625 1997.578125 3943.589844 2001.875 3944.015625 2006.183594 C 3944.441406 2010.492188 3944.757812 2014.808594 3944.972656 2019.132812 C 3945.183594 2023.457031 3945.289062 2027.78125 3945.289062 2032.109375 Z M 3945.289062 2032.109375 " fill-opacity="1" fill-rule="nonzero"/><path fill="#ffffff" d="M 5198.183594 1767.589844 C 5052.59375 1767.589844 4933.664062 1886.519531 4933.664062 2032.109375 C 4933.664062 2177.699219 5052.59375 2296.632812 5198.183594 2296.632812 C 5343.777344 2296.632812 5462.707031 2177.699219 5462.707031 2032.109375 C 5462.707031 1886.519531 5345.828125 1767.589844 5198.183594 1767.589844 Z M 5198.183594 1767.589844 " fill-opacity="1" fill-rule="nonzero"/><path fill="#ffffff" d="M 1997.25 3543.378906 L 3358.828125 3543.378906 L 3358.828125 4669.140625 L 1997.25 4669.140625 Z M 1997.25 3543.378906 " fill-opacity="1" fill-rule="nonzero"/><path fill="#ffffff" d="M 6483.890625 6885.800781 L 7845.464844 6885.800781 L 7845.464844 8011.5625 L 6483.890625 8011.5625 Z M 6483.890625 6885.800781 " fill-opacity="1" fill-rule="nonzero"/><path fill="#ffffff" d="M 6483.890625 3703.324219 L 7845.464844 3703.324219 L 7845.464844 6012.261719 L 6483.890625 6012.261719 Z M 6483.890625 3703.324219 " fill-opacity="1" fill-rule="nonzero"/><path fill="#ffffff" d="M 4375.90625 6248.074219 C 4375.90625 6248.074219 4375.90625 6246.023438 4375.90625 6246.023438 C 4375.90625 6246.023438 4375.90625 6243.972656 4375.90625 6243.972656 L 4375.90625 5565.234375 L 3014.332031 5565.234375 L 3014.332031 6926.8125 L 4375.90625 6926.8125 Z M 4088.828125 6332.148438 L 3783.292969 6332.148438 L 3783.292969 6637.683594 C 3783.292969 6684.84375 3744.335938 6725.855469 3695.121094 6725.855469 C 3645.90625 6725.855469 3606.945312 6686.894531 3606.945312 6637.683594 L 3606.945312 6332.148438 L 3301.410156 6332.148438 C 3252.199219 6332.148438 3213.238281 6293.1875 3213.238281 6243.972656 C 3213.238281 6194.761719 3252.199219 6155.800781 3301.410156 6155.800781 L 3608.996094 6155.800781 L 3608.996094 5850.265625 C 3608.996094 5801.050781 3647.957031 5762.089844 3697.171875 5762.089844 C 3744.335938 5762.089844 3785.34375 5801.050781 3785.34375 5850.265625 L 3785.34375 6155.800781 L 4090.878906 6155.800781 C 4138.042969 6155.800781 4179.054688 6194.761719 4179.054688 6243.972656 C 4174.953125 6293.1875 4135.992188 6332.148438 4088.828125 6332.148438 Z M 4088.828125 6332.148438 " fill-opacity="1" fill-rule="nonzero"/><g clip-path="url(#3f412776b0)"><path fill="#000000" d="M 4997.136719 3250 C 4979.242188 3250 4961.359375 3250.4375 4943.484375 3251.316406 C 4925.613281 3252.191406 4907.769531 3253.507812 4889.960938 3255.261719 C 4872.152344 3257.015625 4854.398438 3259.207031 4836.699219 3261.832031 C 4818.996094 3264.457031 4801.371094 3267.515625 4783.820312 3271.007812 C 4766.269531 3274.5 4748.8125 3278.417969 4731.457031 3282.765625 C 4714.097656 3287.113281 4696.855469 3291.886719 4679.730469 3297.082031 C 4662.605469 3302.277344 4645.621094 3307.886719 4628.769531 3313.914062 C 4611.921875 3319.945312 4595.230469 3326.382812 4578.699219 3333.230469 C 4562.167969 3340.078125 4545.8125 3347.328125 4529.636719 3354.980469 C 4513.457031 3362.628906 4497.480469 3370.671875 4481.699219 3379.109375 C 4465.914062 3387.542969 4450.351562 3396.363281 4435 3405.5625 C 4419.652344 3414.761719 4404.539062 3424.332031 4389.660156 3434.273438 C 4374.78125 3444.214844 4360.152344 3454.515625 4345.78125 3465.175781 C 4331.40625 3475.835938 4317.304688 3486.84375 4303.472656 3498.195312 C 4289.640625 3509.546875 4276.09375 3521.234375 4262.832031 3533.25 C 4249.574219 3545.269531 4236.617188 3557.601562 4223.964844 3570.257812 C 4211.3125 3582.910156 4198.976562 3595.867188 4186.957031 3609.125 C 4174.941406 3622.386719 4163.253906 3635.929688 4151.902344 3649.765625 C 4140.550781 3663.597656 4129.542969 3677.699219 4118.886719 3692.074219 C 4108.226562 3706.445312 4097.925781 3721.074219 4087.980469 3735.953125 C 4078.039062 3750.832031 4068.46875 3765.945312 4059.269531 3781.292969 C 4050.070312 3796.640625 4041.253906 3812.207031 4032.816406 3827.988281 C 4024.382812 3843.769531 4016.339844 3859.75 4008.6875 3875.925781 C 4001.035156 3892.105469 3993.785156 3908.457031 3986.9375 3924.992188 C 3980.089844 3941.523438 3973.652344 3958.214844 3967.625 3975.0625 C 3961.59375 3991.914062 3955.984375 4008.898438 3950.789062 4026.023438 C 3945.59375 4043.148438 3940.824219 4060.390625 3936.472656 4077.746094 C 3932.125 4095.105469 3928.207031 4112.5625 3924.714844 4130.113281 C 3921.222656 4147.664062 3918.167969 4165.289062 3915.539062 4182.988281 C 3912.914062 4200.691406 3910.726562 4218.445312 3908.972656 4236.253906 C 3907.21875 4254.0625 3905.902344 4271.902344 3905.023438 4289.777344 C 3904.144531 4307.652344 3903.707031 4325.535156 3903.707031 4343.429688 C 3903.707031 4361.324219 3904.144531 4379.207031 3905.023438 4397.082031 C 3905.902344 4414.957031 3907.21875 4432.796875 3908.972656 4450.605469 C 3910.726562 4468.414062 3912.914062 4486.167969 3915.539062 4503.871094 C 3918.167969 4521.570312 3921.222656 4539.195312 3924.714844 4556.746094 C 3928.207031 4574.296875 3932.125 4591.753906 3936.472656 4609.113281 C 3940.824219 4626.46875 3945.59375 4643.710938 3950.789062 4660.835938 C 3955.984375 4677.960938 3961.59375 4694.945312 3967.625 4711.796875 C 3973.652344 4728.644531 3980.089844 4745.335938 3986.9375 4761.867188 C 3993.785156 4778.398438 4001.035156 4794.753906 4008.6875 4810.933594 C 4016.339844 4827.109375 4024.382812 4843.085938 4032.816406 4858.871094 C 4041.253906 4874.652344 4050.070312 4890.214844 4059.269531 4905.566406 C 4068.46875 4920.914062 4078.039062 4936.027344 4087.980469 4950.90625 C 4097.925781 4965.785156 4108.226562 4980.414062 4118.886719 4994.785156 C 4129.542969 5009.160156 4140.550781 5023.261719 4151.902344 5037.09375 C 4163.253906 5050.929688 4174.941406 5064.472656 4186.957031 5077.734375 C 4198.976562 5090.992188 4211.3125 5103.949219 4223.964844 5116.601562 C 4236.617188 5129.257812 4249.574219 5141.589844 4262.832031 5153.609375 C 4276.09375 5165.625 4289.636719 5177.3125 4303.472656 5188.664062 C 4317.304688 5200.015625 4331.40625 5211.023438 4345.78125 5221.683594 C 4360.152344 5232.339844 4374.78125 5242.640625 4389.660156 5252.585938 C 4404.539062 5262.527344 4419.652344 5272.097656 4435 5281.296875 C 4450.351562 5290.496094 4465.914062 5299.3125 4481.695312 5307.75 C 4497.480469 5316.183594 4513.457031 5324.230469 4529.636719 5331.878906 C 4545.8125 5339.53125 4562.167969 5346.78125 4578.699219 5353.628906 C 4595.230469 5360.476562 4611.921875 5366.914062 4628.769531 5372.941406 C 4645.621094 5378.972656 4662.605469 5384.582031 4679.730469 5389.777344 C 4696.855469 5394.972656 4714.097656 5399.742188 4731.453125 5404.09375 C 4748.8125 5408.441406 4766.269531 5412.359375 4783.820312 5415.851562 C 4801.371094 5419.34375 4818.996094 5422.398438 4836.699219 5425.027344 C 4854.398438 5427.652344 4872.152344 5429.839844 4889.960938 5431.597656 C 4907.769531 5433.351562 4925.613281 5434.664062 4943.484375 5435.542969 C 4961.359375 5436.421875 4979.242188 5436.859375 4997.136719 5436.859375 C 5015.03125 5436.859375 5032.917969 5436.421875 5050.789062 5435.542969 C 5068.664062 5434.664062 5086.503906 5433.351562 5104.3125 5431.597656 C 5122.121094 5429.839844 5139.875 5427.652344 5157.578125 5425.027344 C 5175.277344 5422.398438 5192.902344 5419.34375 5210.453125 5415.851562 C 5228.007812 5412.359375 5245.460938 5408.441406 5262.820312 5404.09375 C 5280.179688 5399.742188 5297.417969 5394.972656 5314.542969 5389.777344 C 5331.667969 5384.582031 5348.65625 5378.972656 5365.503906 5372.941406 C 5382.351562 5366.914062 5399.042969 5360.476562 5415.574219 5353.628906 C 5432.109375 5346.78125 5448.460938 5339.53125 5464.640625 5331.878906 C 5480.816406 5324.230469 5496.796875 5316.183594 5512.578125 5307.75 C 5528.359375 5299.3125 5543.925781 5290.496094 5559.273438 5281.296875 C 5574.621094 5272.097656 5589.734375 5262.527344 5604.613281 5252.585938 C 5619.496094 5242.640625 5634.121094 5232.339844 5648.492188 5221.683594 C 5662.867188 5211.023438 5676.96875 5200.015625 5690.804688 5188.664062 C 5704.636719 5177.3125 5718.183594 5165.625 5731.441406 5153.609375 C 5744.699219 5141.589844 5757.65625 5129.257812 5770.308594 5116.601562 C 5782.964844 5103.949219 5795.300781 5090.992188 5807.316406 5077.734375 C 5819.335938 5064.472656 5831.019531 5050.929688 5842.371094 5037.09375 C 5853.722656 5023.261719 5864.730469 5009.160156 5875.390625 4994.785156 C 5886.050781 4980.414062 5896.351562 4965.785156 5906.292969 4950.90625 C 5916.234375 4936.027344 5925.804688 4920.914062 5935.003906 4905.566406 C 5944.203125 4890.214844 5953.023438 4874.652344 5961.457031 4858.871094 C 5969.894531 4843.085938 5977.9375 4827.109375 5985.585938 4810.933594 C 5993.238281 4794.753906 6000.488281 4778.398438 6007.335938 4761.867188 C 6014.183594 4745.335938 6020.621094 4728.644531 6026.652344 4711.796875 C 6032.679688 4694.945312 6038.292969 4677.960938 6043.484375 4660.835938 C 6048.679688 4643.710938 6053.453125 4626.46875 6057.800781 4609.113281 C 6062.148438 4591.753906 6066.066406 4574.296875 6069.558594 4556.746094 C 6073.050781 4539.195312 6076.109375 4521.570312 6078.734375 4503.867188 C 6081.359375 4486.167969 6083.550781 4468.414062 6085.304688 4450.605469 C 6087.058594 4432.796875 6088.375 4414.957031 6089.253906 4397.082031 C 6090.128906 4379.207031 6090.570312 4361.324219 6090.570312 4343.429688 C 6090.550781 4325.539062 6090.089844 4307.664062 6089.195312 4289.796875 C 6088.296875 4271.929688 6086.964844 4254.09375 6085.191406 4236.292969 C 6083.421875 4218.492188 6081.214844 4200.742188 6078.574219 4183.050781 C 6075.933594 4165.359375 6072.859375 4147.738281 6069.355469 4130.195312 C 6065.851562 4112.65625 6061.917969 4095.207031 6057.558594 4077.859375 C 6053.199219 4060.507812 6048.414062 4043.277344 6043.210938 4026.160156 C 6038.003906 4009.046875 6032.382812 3992.066406 6026.347656 3975.226562 C 6020.308594 3958.386719 6013.863281 3941.707031 6007.007812 3925.183594 C 6000.152344 3908.660156 5992.898438 3892.3125 5985.238281 3876.144531 C 5977.582031 3859.976562 5969.535156 3844.007812 5961.09375 3828.234375 C 5952.65625 3812.460938 5943.835938 3796.902344 5934.632812 3781.5625 C 5925.429688 3766.21875 5915.859375 3751.113281 5905.914062 3736.242188 C 5895.972656 3721.371094 5885.671875 3706.75 5875.011719 3692.386719 C 5864.351562 3678.019531 5853.347656 3663.921875 5841.996094 3650.09375 C 5830.644531 3636.269531 5818.960938 3622.726562 5806.945312 3609.472656 C 5794.933594 3596.21875 5782.601562 3583.265625 5769.949219 3570.617188 C 5757.300781 3557.96875 5744.347656 3545.636719 5731.09375 3533.621094 C 5717.839844 3521.605469 5704.300781 3509.921875 5690.472656 3498.570312 C 5676.644531 3487.222656 5662.550781 3476.214844 5648.183594 3465.554688 C 5633.816406 3454.898438 5619.195312 3444.59375 5604.324219 3434.652344 C 5589.453125 3424.710938 5574.347656 3415.136719 5559.007812 3405.933594 C 5543.664062 3396.730469 5528.109375 3387.910156 5512.335938 3379.472656 C 5496.5625 3371.03125 5480.589844 3362.984375 5464.421875 3355.328125 C 5448.253906 3347.671875 5431.910156 3340.414062 5415.382812 3333.558594 C 5398.859375 3326.703125 5382.179688 3320.257812 5365.339844 3314.21875 C 5348.5 3308.183594 5331.523438 3302.5625 5314.40625 3297.355469 C 5297.292969 3292.152344 5280.058594 3287.371094 5262.707031 3283.007812 C 5245.359375 3278.648438 5227.914062 3274.714844 5210.371094 3271.210938 C 5192.828125 3267.707031 5175.210938 3264.632812 5157.515625 3261.992188 C 5139.824219 3259.351562 5122.074219 3257.144531 5104.273438 3255.375 C 5086.472656 3253.605469 5068.636719 3252.269531 5050.773438 3251.375 C 5032.90625 3250.476562 5015.027344 3250.019531 4997.136719 3250 Z M 4997.136719 5261.914062 C 4982.105469 5261.914062 4967.082031 5261.542969 4952.070312 5260.804688 C 4937.054688 5260.066406 4922.070312 5258.960938 4907.109375 5257.488281 C 4892.152344 5256.015625 4877.238281 5254.175781 4862.367188 5251.972656 C 4847.5 5249.765625 4832.691406 5247.195312 4817.949219 5244.261719 C 4803.207031 5241.332031 4788.546875 5238.039062 4773.964844 5234.386719 C 4759.382812 5230.734375 4744.902344 5226.726562 4730.515625 5222.363281 C 4716.132812 5218 4701.863281 5213.285156 4687.710938 5208.222656 C 4673.558594 5203.15625 4659.535156 5197.75 4645.648438 5191.996094 C 4631.761719 5186.242188 4618.023438 5180.15625 4604.433594 5173.726562 C 4590.847656 5167.300781 4577.425781 5160.542969 4564.167969 5153.457031 C 4550.910156 5146.371094 4537.835938 5138.964844 4524.941406 5131.238281 C 4512.050781 5123.511719 4499.355469 5115.472656 4486.855469 5107.121094 C 4474.359375 5098.769531 4462.070312 5090.117188 4449.996094 5081.160156 C 4437.925781 5072.207031 4426.078125 5062.960938 4414.457031 5053.425781 C 4402.839844 5043.890625 4391.460938 5034.074219 4380.324219 5023.980469 C 4369.183594 5013.886719 4358.300781 5003.523438 4347.671875 4992.894531 C 4337.042969 4982.265625 4326.679688 4971.382812 4316.585938 4960.246094 C 4306.492188 4949.105469 4296.675781 4937.726562 4287.140625 4926.109375 C 4277.605469 4914.488281 4268.359375 4902.644531 4259.40625 4890.570312 C 4250.449219 4878.496094 4241.796875 4866.210938 4233.445312 4853.710938 C 4225.097656 4841.214844 4217.054688 4828.515625 4209.328125 4815.625 C 4201.601562 4802.730469 4194.195312 4789.65625 4187.109375 4776.398438 C 4180.023438 4763.144531 4173.265625 4749.71875 4166.839844 4736.132812 C 4160.414062 4722.542969 4154.324219 4708.804688 4148.570312 4694.917969 C 4142.816406 4681.03125 4137.410156 4667.011719 4132.34375 4652.855469 C 4127.28125 4638.703125 4122.566406 4624.433594 4118.203125 4610.050781 C 4113.839844 4595.667969 4109.832031 4581.183594 4106.179688 4566.601562 C 4102.527344 4552.019531 4099.234375 4537.359375 4096.304688 4522.617188 C 4093.371094 4507.875 4090.800781 4493.066406 4088.597656 4478.199219 C 4086.390625 4463.332031 4084.550781 4448.414062 4083.078125 4433.457031 C 4081.605469 4418.496094 4080.5 4403.511719 4079.761719 4388.496094 C 4079.023438 4373.484375 4078.65625 4358.460938 4078.65625 4343.429688 C 4078.65625 4328.398438 4079.023438 4313.375 4079.761719 4298.363281 C 4080.5 4283.347656 4081.605469 4268.363281 4083.078125 4253.402344 C 4084.550781 4238.441406 4086.390625 4223.527344 4088.597656 4208.660156 C 4090.800781 4193.792969 4093.371094 4178.984375 4096.304688 4164.242188 C 4099.234375 4149.5 4102.527344 4134.835938 4106.179688 4120.257812 C 4109.832031 4105.675781 4113.839844 4091.191406 4118.203125 4076.808594 C 4122.566406 4062.421875 4127.28125 4048.15625 4132.34375 4034.003906 C 4137.410156 4019.847656 4142.816406 4005.828125 4148.570312 3991.941406 C 4154.324219 3978.054688 4160.414062 3964.316406 4166.839844 3950.726562 C 4173.265625 3937.140625 4180.023438 3923.714844 4187.109375 3910.460938 C 4194.195312 3897.203125 4201.601562 3884.128906 4209.328125 3871.234375 C 4217.054688 3858.34375 4225.097656 3845.644531 4233.445312 3833.148438 C 4241.796875 3820.648438 4250.449219 3808.363281 4259.40625 3796.289062 C 4268.359375 3784.214844 4277.605469 3772.371094 4287.140625 3760.75 C 4296.675781 3749.128906 4306.492188 3737.753906 4316.585938 3726.613281 C 4326.679688 3715.476562 4337.042969 3704.59375 4347.671875 3693.964844 C 4358.300781 3683.335938 4369.183594 3672.972656 4380.320312 3662.878906 C 4391.460938 3652.785156 4402.839844 3642.96875 4414.457031 3633.433594 C 4426.078125 3623.898438 4437.925781 3614.652344 4449.996094 3605.699219 C 4462.070312 3596.742188 4474.359375 3588.089844 4486.855469 3579.738281 C 4499.355469 3571.386719 4512.050781 3563.347656 4524.941406 3555.621094 C 4537.835938 3547.894531 4550.910156 3540.484375 4564.167969 3533.398438 C 4577.425781 3526.3125 4590.847656 3519.558594 4604.433594 3513.132812 C 4618.023438 3506.703125 4631.761719 3500.613281 4645.648438 3494.863281 C 4659.535156 3489.109375 4673.558594 3483.703125 4687.710938 3478.636719 C 4701.863281 3473.574219 4716.132812 3468.859375 4730.515625 3464.496094 C 4744.902344 3460.132812 4759.382812 3456.125 4773.964844 3452.472656 C 4788.546875 3448.820312 4803.207031 3445.527344 4817.949219 3442.59375 C 4832.691406 3439.664062 4847.5 3437.09375 4862.367188 3434.886719 C 4877.238281 3432.683594 4892.152344 3430.84375 4907.109375 3429.371094 C 4922.070312 3427.898438 4937.054688 3426.792969 4952.070312 3426.054688 C 4967.082031 3425.316406 4982.105469 3424.945312 4997.136719 3424.945312 C 5012.167969 3424.945312 5027.191406 3425.316406 5042.207031 3426.054688 C 5057.21875 3426.792969 5072.207031 3427.898438 5087.164062 3429.371094 C 5102.125 3430.84375 5117.039062 3432.683594 5131.90625 3434.886719 C 5146.777344 3437.09375 5161.582031 3439.664062 5176.324219 3442.59375 C 5191.066406 3445.527344 5205.730469 3448.820312 5220.308594 3452.472656 C 5234.890625 3456.125 5249.375 3460.132812 5263.757812 3464.496094 C 5278.144531 3468.859375 5292.410156 3473.574219 5306.566406 3478.636719 C 5320.71875 3483.703125 5334.738281 3489.109375 5348.625 3494.863281 C 5362.511719 3500.613281 5376.25 3506.703125 5389.839844 3513.132812 C 5403.429688 3519.558594 5416.851562 3526.3125 5430.105469 3533.398438 C 5443.363281 3540.484375 5456.4375 3547.894531 5469.332031 3555.621094 C 5482.226562 3563.347656 5494.921875 3571.386719 5507.417969 3579.738281 C 5519.917969 3588.089844 5532.203125 3596.742188 5544.277344 3605.699219 C 5556.351562 3614.652344 5568.195312 3623.898438 5579.816406 3633.433594 C 5591.4375 3642.96875 5602.816406 3652.785156 5613.953125 3662.878906 C 5625.089844 3672.972656 5635.972656 3683.335938 5646.601562 3693.964844 C 5657.230469 3704.59375 5667.59375 3715.476562 5677.6875 3726.613281 C 5687.78125 3737.753906 5697.597656 3749.128906 5707.132812 3760.75 C 5716.667969 3772.371094 5725.914062 3784.214844 5734.871094 3796.289062 C 5743.824219 3808.363281 5752.476562 3820.648438 5760.828125 3833.148438 C 5769.179688 3845.644531 5777.21875 3858.34375 5784.945312 3871.234375 C 5792.671875 3884.128906 5800.082031 3897.203125 5807.167969 3910.460938 C 5814.253906 3923.714844 5821.007812 3937.140625 5827.433594 3950.726562 C 5833.863281 3964.316406 5839.953125 3978.054688 5845.703125 3991.941406 C 5851.457031 4005.828125 5856.863281 4019.847656 5861.929688 4034.003906 C 5866.992188 4048.15625 5871.707031 4062.421875 5876.070312 4076.808594 C 5880.433594 4091.191406 5884.441406 4105.675781 5888.09375 4120.257812 C 5891.746094 4134.835938 5895.039062 4149.5 5897.972656 4164.242188 C 5900.902344 4178.984375 5903.472656 4193.792969 5905.679688 4208.660156 C 5907.882812 4223.527344 5909.722656 4238.441406 5911.195312 4253.402344 C 5912.671875 4268.363281 5913.777344 4283.347656 5914.515625 4298.363281 C 5915.25 4313.375 5915.621094 4328.398438 5915.621094 4343.429688 C 5915.601562 4358.457031 5915.21875 4373.472656 5914.464844 4388.480469 C 5913.710938 4403.488281 5912.589844 4418.46875 5911.101562 4433.421875 C 5909.613281 4448.375 5907.761719 4463.285156 5905.542969 4478.148438 C 5903.324219 4493.007812 5900.742188 4507.808594 5897.796875 4522.542969 C 5894.851562 4537.277344 5891.546875 4551.933594 5887.886719 4566.507812 C 5884.222656 4581.082031 5880.207031 4595.554688 5875.832031 4609.933594 C 5871.460938 4624.308594 5866.738281 4638.570312 5861.667969 4652.714844 C 5856.59375 4666.859375 5851.179688 4680.875 5845.421875 4694.753906 C 5839.664062 4708.632812 5833.566406 4722.363281 5827.136719 4735.945312 C 5820.707031 4749.527344 5813.945312 4762.941406 5806.855469 4776.191406 C 5799.765625 4789.441406 5792.355469 4802.507812 5784.625 4815.394531 C 5776.894531 4828.28125 5768.855469 4840.96875 5760.503906 4853.460938 C 5752.152344 4865.953125 5743.496094 4878.234375 5734.542969 4890.300781 C 5725.589844 4902.367188 5716.34375 4914.210938 5706.808594 4925.824219 C 5697.277344 4937.4375 5687.460938 4948.8125 5677.371094 4959.945312 C 5667.277344 4971.078125 5656.917969 4981.960938 5646.292969 4992.585938 C 5635.667969 5003.210938 5624.789062 5013.570312 5613.65625 5023.664062 C 5602.519531 5033.753906 5591.148438 5043.566406 5579.53125 5053.101562 C 5567.917969 5062.636719 5556.078125 5071.882812 5544.007812 5080.835938 C 5531.941406 5089.789062 5519.660156 5098.441406 5507.167969 5106.796875 C 5494.675781 5115.148438 5481.988281 5123.1875 5469.101562 5130.917969 C 5456.214844 5138.648438 5443.148438 5146.058594 5429.898438 5153.148438 C 5416.648438 5160.238281 5403.234375 5166.996094 5389.652344 5173.429688 C 5376.070312 5179.859375 5362.339844 5185.957031 5348.460938 5191.714844 C 5334.582031 5197.472656 5320.570312 5202.886719 5306.421875 5207.960938 C 5292.277344 5213.03125 5278.019531 5217.753906 5263.640625 5222.125 C 5249.265625 5226.496094 5234.789062 5230.515625 5220.214844 5234.179688 C 5205.640625 5237.839844 5190.988281 5241.144531 5176.25 5244.089844 C 5161.515625 5247.035156 5146.714844 5249.613281 5131.855469 5251.832031 C 5116.992188 5254.050781 5102.085938 5255.90625 5087.132812 5257.394531 C 5072.179688 5258.882812 5057.199219 5260.003906 5042.191406 5260.757812 C 5027.183594 5261.507812 5012.164062 5261.894531 4997.136719 5261.914062 Z M 4997.136719 3949.792969 C 5000 3949.792969 5002.863281 3949.722656 5005.722656 3949.582031 C 5008.582031 3949.441406 5011.4375 3949.234375 5014.285156 3948.953125 C 5017.136719 3948.671875 5019.976562 3948.320312 5022.808594 3947.902344 C 5025.640625 3947.480469 5028.460938 3946.992188 5031.269531 3946.433594 C 5034.078125 3945.875 5036.871094 3945.246094 5039.648438 3944.550781 C 5042.425781 3943.855469 5045.183594 3943.09375 5047.921875 3942.261719 C 5050.664062 3941.429688 5053.378906 3940.53125 5056.074219 3939.566406 C 5058.773438 3938.601562 5061.441406 3937.574219 5064.085938 3936.476562 C 5066.734375 3935.382812 5069.347656 3934.222656 5071.9375 3932.996094 C 5074.527344 3931.773438 5077.082031 3930.484375 5079.609375 3929.136719 C 5082.132812 3927.785156 5084.625 3926.375 5087.078125 3924.902344 C 5089.535156 3923.433594 5091.953125 3921.902344 5094.332031 3920.308594 C 5096.714844 3918.71875 5099.054688 3917.070312 5101.355469 3915.367188 C 5103.652344 3913.660156 5105.910156 3911.898438 5108.125 3910.082031 C 5110.335938 3908.265625 5112.503906 3906.398438 5114.625 3904.472656 C 5116.746094 3902.550781 5118.820312 3900.578125 5120.84375 3898.554688 C 5122.871094 3896.527344 5124.84375 3894.457031 5126.765625 3892.332031 C 5128.6875 3890.210938 5130.558594 3888.046875 5132.375 3885.832031 C 5134.191406 3883.617188 5135.953125 3881.363281 5137.65625 3879.0625 C 5139.363281 3876.761719 5141.011719 3874.421875 5142.601562 3872.042969 C 5144.191406 3869.660156 5145.722656 3867.242188 5147.195312 3864.785156 C 5148.667969 3862.332031 5150.078125 3859.839844 5151.429688 3857.316406 C 5152.777344 3854.789062 5154.066406 3852.234375 5155.289062 3849.644531 C 5156.511719 3847.058594 5157.671875 3844.441406 5158.769531 3841.796875 C 5159.863281 3839.148438 5160.894531 3836.480469 5161.859375 3833.785156 C 5162.824219 3831.085938 5163.722656 3828.371094 5164.554688 3825.628906 C 5165.382812 3822.890625 5166.148438 3820.132812 5166.84375 3817.355469 C 5167.539062 3814.578125 5168.167969 3811.785156 5168.726562 3808.976562 C 5169.285156 3806.167969 5169.773438 3803.347656 5170.191406 3800.515625 C 5170.613281 3797.683594 5170.964844 3794.84375 5171.246094 3791.992188 C 5171.523438 3789.144531 5171.734375 3786.289062 5171.875 3783.429688 C 5172.015625 3780.570312 5172.085938 3777.707031 5172.085938 3774.84375 C 5172.085938 3771.980469 5172.015625 3769.121094 5171.875 3766.261719 C 5171.734375 3763.402344 5171.523438 3760.546875 5171.246094 3757.699219 C 5170.964844 3754.847656 5170.613281 3752.007812 5170.191406 3749.175781 C 5169.773438 3746.34375 5169.285156 3743.523438 5168.726562 3740.714844 C 5168.167969 3737.90625 5167.539062 3735.113281 5166.84375 3732.335938 C 5166.148438 3729.558594 5165.382812 3726.800781 5164.554688 3724.058594 C 5163.722656 3721.320312 5162.824219 3718.601562 5161.859375 3715.90625 C 5160.894531 3713.210938 5159.863281 3710.539062 5158.769531 3707.894531 C 5157.671875 3705.25 5156.511719 3702.632812 5155.289062 3700.042969 C 5154.066406 3697.457031 5152.777344 3694.898438 5151.429688 3692.375 C 5150.078125 3689.851562 5148.667969 3687.359375 5147.195312 3684.902344 C 5145.722656 3682.449219 5144.191406 3680.027344 5142.601562 3677.648438 C 5141.011719 3675.269531 5139.363281 3672.929688 5137.65625 3670.628906 C 5135.953125 3668.328125 5134.191406 3666.070312 5132.375 3663.859375 C 5130.558594 3661.644531 5128.6875 3659.476562 5126.765625 3657.355469 C 5124.84375 3655.234375 5122.871094 3653.164062 5120.84375 3651.136719 C 5118.820312 3649.113281 5116.746094 3647.140625 5114.625 3645.214844 C 5112.503906 3643.292969 5110.335938 3641.425781 5108.125 3639.609375 C 5105.910156 3637.792969 5103.652344 3636.03125 5101.355469 3634.324219 C 5099.054688 3632.621094 5096.714844 3630.972656 5094.332031 3629.378906 C 5091.953125 3627.789062 5089.535156 3626.257812 5087.078125 3624.785156 C 5084.625 3623.3125 5082.132812 3621.902344 5079.609375 3620.554688 C 5077.082031 3619.203125 5074.527344 3617.917969 5071.9375 3616.691406 C 5069.347656 3615.46875 5066.734375 3614.308594 5064.085938 3613.214844 C 5061.441406 3612.117188 5058.773438 3611.085938 5056.074219 3610.121094 C 5053.378906 3609.160156 5050.664062 3608.261719 5047.921875 3607.429688 C 5045.183594 3606.597656 5042.425781 3605.835938 5039.648438 3605.140625 C 5036.871094 3604.445312 5034.078125 3603.816406 5031.269531 3603.257812 C 5028.460938 3602.699219 5025.640625 3602.210938 5022.808594 3601.789062 C 5019.976562 3601.371094 5017.136719 3601.019531 5014.285156 3600.738281 C 5011.4375 3600.457031 5008.582031 3600.246094 5005.722656 3600.105469 C 5002.863281 3599.964844 5000 3599.894531 4997.136719 3599.894531 C 4994.273438 3599.894531 4991.414062 3599.964844 4988.554688 3600.105469 C 4985.695312 3600.246094 4982.839844 3600.457031 4979.988281 3600.738281 C 4977.140625 3601.019531 4974.300781 3601.371094 4971.46875 3601.789062 C 4968.636719 3602.210938 4965.816406 3602.699219 4963.007812 3603.257812 C 4960.199219 3603.816406 4957.40625 3604.445312 4954.628906 3605.140625 C 4951.851562 3605.835938 4949.09375 3606.597656 4946.351562 3607.429688 C 4943.613281 3608.261719 4940.894531 3609.160156 4938.199219 3610.121094 C 4935.503906 3611.085938 4932.832031 3612.117188 4930.1875 3613.214844 C 4927.542969 3614.308594 4924.925781 3615.46875 4922.335938 3616.691406 C 4919.75 3617.917969 4917.191406 3619.203125 4914.667969 3620.554688 C 4912.140625 3621.902344 4909.652344 3623.3125 4907.195312 3624.785156 C 4904.738281 3626.257812 4902.320312 3627.789062 4899.941406 3629.378906 C 4897.558594 3630.972656 4895.21875 3632.617188 4892.921875 3634.324219 C 4890.621094 3636.03125 4888.363281 3637.792969 4886.152344 3639.609375 C 4883.9375 3641.425781 4881.769531 3643.292969 4879.648438 3645.214844 C 4877.527344 3647.140625 4875.453125 3649.113281 4873.429688 3651.136719 C 4871.40625 3653.164062 4869.429688 3655.234375 4867.507812 3657.355469 C 4865.585938 3659.476562 4863.714844 3661.644531 4861.898438 3663.859375 C 4860.082031 3666.070312 4858.324219 3668.328125 4856.617188 3670.628906 C 4854.910156 3672.929688 4853.261719 3675.269531 4851.671875 3677.648438 C 4850.082031 3680.03125 4848.550781 3682.449219 4847.078125 3684.902344 C 4845.605469 3687.359375 4844.195312 3689.851562 4842.847656 3692.375 C 4841.496094 3694.898438 4840.210938 3697.457031 4838.984375 3700.042969 C 4837.761719 3702.632812 4836.601562 3705.25 4835.503906 3707.894531 C 4834.410156 3710.539062 4833.378906 3713.210938 4832.414062 3715.90625 C 4831.449219 3718.601562 4830.554688 3721.320312 4829.722656 3724.058594 C 4828.890625 3726.800781 4828.128906 3729.558594 4827.429688 3732.335938 C 4826.734375 3735.113281 4826.109375 3737.90625 4825.550781 3740.714844 C 4824.992188 3743.523438 4824.5 3746.34375 4824.082031 3749.175781 C 4823.660156 3752.007812 4823.3125 3754.847656 4823.03125 3757.695312 C 4822.75 3760.546875 4822.539062 3763.402344 4822.398438 3766.261719 C 4822.257812 3769.121094 4822.1875 3771.980469 4822.1875 3774.84375 C 4822.1875 3777.707031 4822.257812 3780.570312 4822.398438 3783.429688 C 4822.539062 3786.289062 4822.75 3789.144531 4823.03125 3791.992188 C 4823.3125 3794.84375 4823.660156 3797.683594 4824.082031 3800.515625 C 4824.5 3803.347656 4824.992188 3806.167969 4825.550781 3808.976562 C 4826.109375 3811.785156 4826.734375 3814.578125 4827.429688 3817.355469 C 4828.128906 3820.132812 4828.890625 3822.890625 4829.722656 3825.628906 C 4830.550781 3828.371094 4831.449219 3831.085938 4832.414062 3833.785156 C 4833.378906 3836.480469 4834.410156 3839.148438 4835.503906 3841.796875 C 4836.601562 3844.441406 4837.761719 3847.058594 4838.984375 3849.644531 C 4840.210938 3852.234375 4841.496094 3854.789062 4842.847656 3857.316406 C 4844.195312 3859.839844 4845.605469 3862.332031 4847.078125 3864.785156 C 4848.550781 3867.242188 4850.082031 3869.660156 4851.671875 3872.042969 C 4853.261719 3874.421875 4854.910156 3876.761719 4856.617188 3879.0625 C 4858.324219 3881.363281 4860.082031 3883.617188 4861.898438 3885.832031 C 4863.714844 3888.046875 4865.585938 3890.210938 4867.507812 3892.332031 C 4869.429688 3894.457031 4871.40625 3896.527344 4873.429688 3898.554688 C 4875.453125 3900.578125 4877.527344 3902.550781 4879.648438 3904.472656 C 4881.769531 3906.398438 4883.9375 3908.265625 4886.152344 3910.082031 C 4888.363281 3911.898438 4890.621094 3913.660156 4892.921875 3915.367188 C 4895.21875 3917.070312 4897.558594 3918.71875 4899.941406 3920.308594 C 4902.320312 3921.902344 4904.738281 3923.433594 4907.195312 3924.902344 C 4909.652344 3926.375 4912.140625 3927.785156 4914.667969 3929.136719 C 4917.191406 3930.484375 4919.75 3931.773438 4922.335938 3932.996094 C 4924.925781 3934.222656 4927.542969 3935.382812 4930.1875 3936.476562 C 4932.832031 3937.574219 4935.503906 3938.601562 4938.199219 3939.566406 C 4940.894531 3940.53125 4943.613281 3941.429688 4946.351562 3942.261719 C 4949.09375 3943.09375 4951.851562 3943.855469 4954.628906 3944.550781 C 4957.40625 3945.246094 4960.199219 3945.875 4963.007812 3946.433594 C 4965.816406 3946.992188 4968.636719 3947.480469 4971.46875 3947.902344 C 4974.300781 3948.320312 4977.140625 3948.671875 4979.988281 3948.953125 C 4982.839844 3949.234375 4985.695312 3949.441406 4988.554688 3949.582031 C 4991.414062 3949.722656 4994.273438 3949.792969 4997.136719 3949.792969 Z M 5465.691406 3950.691406 L 5007.953125 4017.285156 C 5000.742188 4018.332031 4993.53125 4018.332031 4986.320312 4017.285156 L 4528.628906 3950.691406 C 4527.210938 3950.488281 4525.792969 3950.320312 4524.371094 3950.1875 C 4522.945312 3950.054688 4521.519531 3949.957031 4520.09375 3949.894531 C 4518.664062 3949.832031 4517.234375 3949.804688 4515.808594 3949.8125 C 4514.378906 3949.820312 4512.949219 3949.863281 4511.523438 3949.941406 C 4510.09375 3950.019531 4508.667969 3950.128906 4507.246094 3950.277344 C 4505.824219 3950.425781 4504.410156 3950.605469 4502.996094 3950.824219 C 4501.582031 3951.039062 4500.175781 3951.289062 4498.777344 3951.578125 C 4497.375 3951.863281 4495.980469 3952.183594 4494.597656 3952.535156 C 4493.210938 3952.890625 4491.835938 3953.277344 4490.472656 3953.699219 C 4489.105469 3954.121094 4487.75 3954.574219 4486.40625 3955.0625 C 4485.0625 3955.550781 4483.730469 3956.070312 4482.414062 3956.621094 C 4481.097656 3957.175781 4479.792969 3957.761719 4478.503906 3958.378906 C 4477.214844 3958.996094 4475.9375 3959.640625 4474.679688 3960.320312 C 4473.425781 3961 4472.183594 3961.710938 4470.960938 3962.449219 C 4469.738281 3963.191406 4468.535156 3963.960938 4467.347656 3964.757812 C 4466.164062 3965.558594 4465 3966.386719 4463.855469 3967.242188 C 4462.707031 3968.097656 4461.585938 3968.980469 4460.484375 3969.894531 C 4459.382812 3970.804688 4458.304688 3971.742188 4457.25 3972.707031 C 4456.195312 3973.671875 4455.164062 3974.660156 4454.15625 3975.675781 C 4453.148438 3976.6875 4452.167969 3977.726562 4451.210938 3978.789062 C 4450.257812 3979.851562 4449.328125 3980.9375 4448.421875 3982.046875 C 4447.519531 3983.15625 4446.644531 3984.285156 4445.796875 3985.4375 C 4444.949219 3986.585938 4444.132812 3987.757812 4443.34375 3988.949219 C 4442.550781 3990.140625 4441.792969 3991.351562 4441.0625 3992.578125 C 4440.332031 3993.808594 4439.628906 3995.054688 4438.960938 3996.316406 C 4438.292969 3997.578125 4437.652344 3998.859375 4437.046875 4000.152344 C 4436.4375 4001.445312 4435.863281 4002.753906 4435.320312 4004.078125 C 4434.777344 4005.398438 4434.269531 4006.734375 4433.789062 4008.082031 C 4433.3125 4009.429688 4432.871094 4010.785156 4432.457031 4012.15625 C 4432.046875 4013.523438 4431.671875 4014.902344 4431.328125 4016.289062 C 4430.984375 4017.679688 4430.675781 4019.074219 4430.398438 4020.476562 C 4430.125 4021.878906 4429.882812 4023.289062 4429.679688 4024.703125 C 4429.472656 4026.117188 4429.300781 4027.535156 4429.164062 4028.957031 C 4429.03125 4030.382812 4428.929688 4031.808594 4428.863281 4033.234375 C 4428.796875 4034.664062 4428.761719 4036.089844 4428.765625 4037.519531 C 4428.769531 4038.949219 4428.808594 4040.378906 4428.882812 4041.804688 C 4428.957031 4043.234375 4429.066406 4044.660156 4429.207031 4046.082031 C 4429.351562 4047.503906 4429.53125 4048.921875 4429.742188 4050.335938 C 4429.957031 4051.746094 4430.203125 4053.15625 4430.484375 4054.554688 C 4430.765625 4055.957031 4431.082031 4057.351562 4431.433594 4058.738281 C 4431.785156 4060.125 4432.167969 4061.5 4432.585938 4062.867188 C 4433.003906 4064.234375 4433.453125 4065.589844 4433.9375 4066.933594 C 4434.421875 4068.28125 4434.9375 4069.613281 4435.488281 4070.929688 C 4436.039062 4072.25 4436.621094 4073.554688 4437.234375 4074.847656 C 4437.847656 4076.136719 4438.492188 4077.414062 4439.167969 4078.671875 C 4439.84375 4079.933594 4440.546875 4081.175781 4441.285156 4082.398438 C 4442.023438 4083.625 4442.789062 4084.832031 4443.585938 4086.019531 C 4444.378906 4087.207031 4445.207031 4088.371094 4446.058594 4089.519531 C 4446.910156 4090.667969 4447.792969 4091.792969 4448.699219 4092.894531 C 4449.609375 4094 4450.542969 4095.082031 4451.503906 4096.136719 C 4452.464844 4097.195312 4453.453125 4098.230469 4454.464844 4099.238281 C 4455.476562 4100.25 4456.511719 4101.234375 4457.574219 4102.191406 C 4458.632812 4103.152344 4459.714844 4104.082031 4460.820312 4104.988281 C 4461.925781 4105.894531 4463.054688 4106.773438 4464.203125 4107.625 C 4465.351562 4108.472656 4466.523438 4109.296875 4467.710938 4110.089844 C 4468.898438 4110.882812 4470.109375 4111.644531 4471.335938 4112.378906 C 4472.5625 4113.113281 4473.804688 4113.816406 4475.066406 4114.488281 C 4476.328125 4115.164062 4477.605469 4115.804688 4478.898438 4116.414062 C 4480.1875 4117.023438 4481.496094 4117.601562 4482.816406 4118.148438 C 4484.136719 4118.695312 4485.472656 4119.210938 4486.816406 4119.691406 C 4488.164062 4120.171875 4489.519531 4120.621094 4490.886719 4121.035156 C 4492.257812 4121.449219 4493.632812 4121.828125 4495.019531 4122.175781 C 4496.40625 4122.523438 4497.800781 4122.835938 4499.203125 4123.113281 C 4500.605469 4123.394531 4502.011719 4123.636719 4503.425781 4123.847656 L 4785.164062 4164.839844 C 4786.429688 4165.023438 4787.675781 4165.320312 4788.890625 4165.726562 C 4790.105469 4166.132812 4791.277344 4166.644531 4792.402344 4167.261719 C 4793.527344 4167.875 4794.585938 4168.585938 4795.585938 4169.394531 C 4796.582031 4170.199219 4797.5 4171.085938 4798.339844 4172.054688 C 4799.179688 4173.027344 4799.925781 4174.0625 4800.582031 4175.167969 C 4801.234375 4176.269531 4801.785156 4177.421875 4802.234375 4178.625 C 4802.679688 4179.824219 4803.019531 4181.058594 4803.246094 4182.320312 C 4803.472656 4183.582031 4803.585938 4184.855469 4803.585938 4186.136719 L 4803.585938 4523.675781 L 4796.105469 4558.1875 L 4615.417969 4955.410156 C 4614.699219 4956.644531 4614.007812 4957.898438 4613.347656 4959.167969 C 4612.6875 4960.441406 4612.058594 4961.726562 4611.460938 4963.027344 C 4610.867188 4964.328125 4610.300781 4965.644531 4609.769531 4966.972656 C 4609.238281 4968.300781 4608.738281 4969.640625 4608.269531 4970.996094 C 4607.804688 4972.351562 4607.371094 4973.714844 4606.972656 4975.089844 C 4606.574219 4976.464844 4606.207031 4977.847656 4605.875 4979.238281 C 4605.546875 4980.632812 4605.25 4982.03125 4604.984375 4983.441406 C 4604.722656 4984.847656 4604.496094 4986.261719 4604.300781 4987.679688 C 4604.109375 4989.097656 4603.949219 4990.519531 4603.828125 4991.945312 C 4603.703125 4993.371094 4603.613281 4994.800781 4603.5625 4996.230469 C 4603.507812 4997.660156 4603.488281 4999.09375 4603.507812 5000.523438 C 4603.523438 5001.957031 4603.578125 5003.386719 4603.664062 5004.816406 C 4603.75 5006.242188 4603.871094 5007.667969 4604.03125 5009.09375 C 4604.1875 5010.515625 4604.378906 5011.933594 4604.605469 5013.347656 C 4604.832031 5014.761719 4605.09375 5016.167969 4605.390625 5017.570312 C 4605.6875 5018.96875 4606.015625 5020.363281 4606.378906 5021.746094 C 4606.746094 5023.128906 4607.144531 5024.503906 4607.574219 5025.871094 C 4608.007812 5027.234375 4608.472656 5028.589844 4608.96875 5029.929688 C 4609.46875 5031.273438 4610 5032.601562 4610.5625 5033.917969 C 4611.125 5035.234375 4611.722656 5036.535156 4612.347656 5037.824219 C 4612.976562 5039.109375 4613.632812 5040.378906 4614.324219 5041.632812 C 4615.015625 5042.890625 4615.734375 5044.125 4616.484375 5045.34375 C 4617.234375 5046.5625 4618.015625 5047.765625 4618.824219 5048.945312 C 4619.632812 5050.125 4620.472656 5051.285156 4621.335938 5052.425781 C 4622.203125 5053.566406 4623.097656 5054.683594 4624.019531 5055.777344 C 4624.941406 5056.875 4625.886719 5057.949219 4626.863281 5058.996094 C 4627.835938 5060.046875 4628.835938 5061.070312 4629.859375 5062.070312 C 4630.882812 5063.070312 4631.929688 5064.046875 4633.003906 5064.996094 C 4634.074219 5065.941406 4635.171875 5066.863281 4636.289062 5067.761719 C 4637.40625 5068.65625 4638.542969 5069.523438 4639.703125 5070.363281 C 4640.863281 5071.199219 4642.042969 5072.011719 4643.242188 5072.792969 C 4644.441406 5073.574219 4645.660156 5074.324219 4646.898438 5075.046875 C 4648.132812 5075.765625 4649.386719 5076.457031 4650.65625 5077.117188 C 4651.929688 5077.777344 4653.214844 5078.40625 4654.515625 5079.003906 C 4655.816406 5079.597656 4657.132812 5080.164062 4658.460938 5080.695312 C 4659.789062 5081.226562 4661.132812 5081.726562 4662.484375 5082.191406 C 4663.839844 5082.660156 4665.203125 5083.09375 4666.578125 5083.492188 C 4667.953125 5083.890625 4669.335938 5084.257812 4670.730469 5084.585938 C 4672.121094 5084.917969 4673.519531 5085.214844 4674.929688 5085.480469 C 4676.335938 5085.742188 4677.75 5085.96875 4679.167969 5086.164062 C 4680.585938 5086.355469 4682.007812 5086.515625 4683.433594 5086.636719 C 4684.859375 5086.761719 4686.289062 5086.847656 4687.71875 5086.902344 C 4689.152344 5086.957031 4690.582031 5086.972656 4692.011719 5086.957031 C 4693.445312 5086.941406 4694.875 5086.886719 4696.304688 5086.800781 C 4697.734375 5086.714844 4699.160156 5086.589844 4700.582031 5086.433594 C 4702.003906 5086.277344 4703.421875 5086.085938 4704.835938 5085.859375 C 4706.25 5085.632812 4707.65625 5085.371094 4709.058594 5085.074219 C 4710.457031 5084.777344 4711.851562 5084.449219 4713.234375 5084.085938 C 4714.621094 5083.71875 4715.996094 5083.320312 4717.359375 5082.890625 C 4718.722656 5082.457031 4720.078125 5081.992188 4721.421875 5081.496094 C 4722.761719 5080.996094 4724.089844 5080.464844 4725.40625 5079.902344 C 4726.722656 5079.339844 4728.023438 5078.742188 4729.3125 5078.117188 C 4730.597656 5077.488281 4731.867188 5076.828125 4733.125 5076.140625 C 4734.378906 5075.449219 4735.613281 5074.730469 4736.835938 5073.980469 C 4738.054688 5073.230469 4739.253906 5072.449219 4740.433594 5071.640625 C 4741.613281 5070.832031 4742.773438 5069.992188 4743.914062 5069.125 C 4745.054688 5068.261719 4746.171875 5067.367188 4747.269531 5066.445312 C 4748.363281 5065.523438 4749.4375 5064.574219 4750.484375 5063.601562 C 4751.535156 5062.628906 4752.558594 5061.628906 4753.558594 5060.605469 C 4754.558594 5059.582031 4755.535156 5058.53125 4756.484375 5057.460938 C 4757.433594 5056.386719 4758.355469 5055.292969 4759.25 5054.175781 C 4760.144531 5053.058594 4761.011719 5051.921875 4761.851562 5050.761719 C 4762.6875 5049.601562 4763.5 5048.421875 4764.28125 5047.222656 C 4765.0625 5046.023438 4765.8125 5044.804688 4766.535156 5043.566406 L 4975.988281 4607.726562 C 4976.480469 4606.703125 4977.042969 4605.714844 4977.675781 4604.769531 C 4978.308594 4603.824219 4979 4602.925781 4979.757812 4602.078125 C 4980.515625 4601.230469 4981.328125 4600.441406 4982.199219 4599.707031 C 4983.066406 4598.972656 4983.984375 4598.304688 4984.945312 4597.699219 C 4985.910156 4597.09375 4986.910156 4596.5625 4987.949219 4596.097656 C 4988.988281 4595.632812 4990.050781 4595.242188 4991.144531 4594.929688 C 4992.238281 4594.617188 4993.347656 4594.378906 4994.472656 4594.222656 C 4995.601562 4594.066406 4996.730469 4593.988281 4997.867188 4593.988281 C 4999.007812 4593.988281 5000.136719 4594.070312 5001.261719 4594.230469 C 5002.390625 4594.394531 5003.496094 4594.632812 5004.589844 4594.949219 C 5005.683594 4595.265625 5006.746094 4595.65625 5007.785156 4596.125 C 5008.820312 4596.589844 5009.820312 4597.128906 5010.78125 4597.734375 C 5011.742188 4598.339844 5012.65625 4599.011719 5013.523438 4599.75 C 5014.390625 4600.484375 5015.203125 4601.277344 5015.957031 4602.128906 C 5016.710938 4602.976562 5017.402344 4603.875 5018.03125 4604.824219 C 5018.660156 4605.773438 5019.222656 4606.757812 5019.710938 4607.785156 L 5227.699219 5043.566406 C 5228.421875 5044.800781 5229.175781 5046.011719 5229.957031 5047.207031 C 5230.742188 5048.40625 5231.554688 5049.578125 5232.394531 5050.734375 C 5233.234375 5051.890625 5234.105469 5053.027344 5235 5054.140625 C 5235.898438 5055.253906 5236.820312 5056.34375 5237.769531 5057.410156 C 5238.722656 5058.476562 5239.695312 5059.523438 5240.699219 5060.542969 C 5241.699219 5061.5625 5242.722656 5062.558594 5243.773438 5063.527344 C 5244.824219 5064.496094 5245.898438 5065.441406 5246.992188 5066.359375 C 5248.089844 5067.277344 5249.207031 5068.164062 5250.347656 5069.027344 C 5251.488281 5069.890625 5252.648438 5070.722656 5253.828125 5071.53125 C 5255.007812 5072.335938 5256.207031 5073.113281 5257.425781 5073.859375 C 5258.644531 5074.605469 5259.882812 5075.324219 5261.132812 5076.007812 C 5262.386719 5076.695312 5263.65625 5077.351562 5264.945312 5077.972656 C 5266.230469 5078.597656 5267.53125 5079.191406 5268.84375 5079.75 C 5270.160156 5080.3125 5271.488281 5080.839844 5272.828125 5081.335938 C 5274.167969 5081.832031 5275.519531 5082.292969 5276.882812 5082.722656 C 5278.246094 5083.152344 5279.621094 5083.546875 5281.003906 5083.90625 C 5282.386719 5084.269531 5283.777344 5084.597656 5285.175781 5084.890625 C 5286.574219 5085.183594 5287.980469 5085.445312 5289.390625 5085.667969 C 5290.804688 5085.894531 5292.21875 5086.082031 5293.640625 5086.238281 C 5295.0625 5086.394531 5296.484375 5086.515625 5297.910156 5086.601562 C 5299.335938 5086.6875 5300.765625 5086.738281 5302.195312 5086.753906 C 5303.625 5086.769531 5305.054688 5086.75 5306.480469 5086.695312 C 5307.910156 5086.640625 5309.335938 5086.550781 5310.757812 5086.425781 C 5312.183594 5086.304688 5313.601562 5086.144531 5315.019531 5085.949219 C 5316.4375 5085.757812 5317.847656 5085.527344 5319.25 5085.265625 C 5320.65625 5085.003906 5322.054688 5084.707031 5323.445312 5084.375 C 5324.835938 5084.042969 5326.214844 5083.679688 5327.589844 5083.277344 C 5328.960938 5082.878906 5330.324219 5082.449219 5331.671875 5081.980469 C 5333.023438 5081.515625 5334.363281 5081.019531 5335.691406 5080.488281 C 5337.019531 5079.957031 5338.332031 5079.390625 5339.628906 5078.796875 C 5340.929688 5078.199219 5342.214844 5077.574219 5343.480469 5076.914062 C 5344.75 5076.257812 5346 5075.566406 5347.238281 5074.847656 C 5348.472656 5074.125 5349.6875 5073.378906 5350.886719 5072.597656 C 5352.082031 5071.816406 5353.261719 5071.007812 5354.421875 5070.171875 C 5355.578125 5069.335938 5356.714844 5068.46875 5357.832031 5067.578125 C 5358.949219 5066.683594 5360.042969 5065.765625 5361.113281 5064.816406 C 5362.183594 5063.871094 5363.230469 5062.898438 5364.253906 5061.902344 C 5365.277344 5060.902344 5366.273438 5059.882812 5367.25 5058.835938 C 5368.222656 5057.789062 5369.167969 5056.71875 5370.089844 5055.625 C 5371.011719 5054.53125 5371.902344 5053.417969 5372.769531 5052.277344 C 5373.636719 5051.140625 5374.472656 5049.984375 5375.285156 5048.808594 C 5376.09375 5047.628906 5376.875 5046.429688 5377.625 5045.214844 C 5378.375 5044 5379.09375 5042.765625 5379.785156 5041.515625 C 5380.476562 5040.261719 5381.136719 5038.996094 5381.761719 5037.710938 C 5382.390625 5036.425781 5382.988281 5035.128906 5383.554688 5033.816406 C 5384.117188 5032.503906 5384.648438 5031.175781 5385.148438 5029.835938 C 5385.648438 5028.5 5386.113281 5027.148438 5386.546875 5025.785156 C 5386.980469 5024.421875 5387.382812 5023.050781 5387.75 5021.671875 C 5388.113281 5020.289062 5388.445312 5018.898438 5388.746094 5017.5 C 5389.042969 5016.101562 5389.304688 5014.699219 5389.535156 5013.289062 C 5389.765625 5011.878906 5389.960938 5010.460938 5390.121094 5009.042969 C 5390.28125 5007.621094 5390.40625 5006.199219 5390.496094 5004.769531 C 5390.585938 5003.34375 5390.640625 5001.917969 5390.660156 5000.488281 C 5390.679688 4999.058594 5390.667969 4997.628906 5390.617188 4996.203125 C 5390.566406 4994.773438 5390.484375 4993.347656 5390.363281 4991.921875 C 5390.242188 4990.5 5390.089844 4989.078125 5389.898438 4987.660156 C 5389.710938 4986.246094 5389.488281 4984.832031 5389.230469 4983.425781 C 5388.96875 4982.023438 5388.675781 4980.621094 5388.351562 4979.230469 C 5388.023438 4977.839844 5387.664062 4976.457031 5387.269531 4975.082031 C 5386.875 4973.710938 5386.445312 4972.347656 5385.984375 4970.992188 C 5385.523438 4969.640625 5385.027344 4968.300781 5384.5 4966.972656 C 5383.976562 4965.644531 5383.414062 4964.328125 5382.824219 4963.027344 C 5382.230469 4961.726562 5381.609375 4960.441406 5380.953125 4959.171875 C 5380.300781 4957.898438 5379.613281 4956.644531 5378.898438 4955.410156 L 5195.339844 4551.882812 L 5190.6875 4530.441406 L 5190.6875 4186.140625 C 5190.6875 4184.859375 5190.800781 4183.585938 5191.03125 4182.324219 C 5191.257812 4181.0625 5191.59375 4179.828125 5192.042969 4178.628906 C 5192.488281 4177.425781 5193.039062 4176.273438 5193.695312 4175.167969 C 5194.347656 4174.066406 5195.09375 4173.03125 5195.933594 4172.058594 C 5196.773438 4171.089844 5197.691406 4170.203125 5198.6875 4169.398438 C 5199.6875 4168.589844 5200.75 4167.878906 5201.875 4167.265625 C 5202.996094 4166.648438 5204.167969 4166.136719 5205.382812 4165.730469 C 5206.601562 4165.324219 5207.84375 4165.027344 5209.113281 4164.84375 L 5490.804688 4123.851562 C 5492.21875 4123.640625 5493.625 4123.398438 5495.027344 4123.117188 C 5496.429688 4122.839844 5497.824219 4122.527344 5499.210938 4122.183594 C 5500.597656 4121.835938 5501.972656 4121.457031 5503.339844 4121.042969 C 5504.710938 4120.628906 5506.066406 4120.179688 5507.410156 4119.699219 C 5508.757812 4119.21875 5510.089844 4118.707031 5511.410156 4118.160156 C 5512.734375 4117.613281 5514.039062 4117.035156 5515.332031 4116.425781 C 5516.625 4115.816406 5517.902344 4115.175781 5519.160156 4114.503906 C 5520.421875 4113.828125 5521.667969 4113.128906 5522.894531 4112.394531 C 5524.121094 4111.660156 5525.328125 4110.898438 5526.515625 4110.105469 C 5527.707031 4109.3125 5528.875 4108.492188 5530.023438 4107.640625 C 5531.171875 4106.789062 5532.300781 4105.914062 5533.40625 4105.007812 C 5534.511719 4104.101562 5535.59375 4103.171875 5536.65625 4102.214844 C 5537.714844 4101.253906 5538.75 4100.269531 5539.761719 4099.261719 C 5540.773438 4098.253906 5541.761719 4097.21875 5542.722656 4096.164062 C 5543.683594 4095.105469 5544.621094 4094.023438 5545.527344 4092.921875 C 5546.4375 4091.820312 5547.316406 4090.695312 5548.171875 4089.546875 C 5549.023438 4088.402344 5549.847656 4087.234375 5550.644531 4086.046875 C 5551.441406 4084.863281 5552.207031 4083.65625 5552.945312 4082.429688 C 5553.683594 4081.207031 5554.390625 4079.964844 5555.066406 4078.707031 C 5555.742188 4077.449219 5556.386719 4076.171875 5557 4074.882812 C 5557.613281 4073.589844 5558.195312 4072.285156 5558.746094 4070.96875 C 5559.296875 4069.648438 5559.8125 4068.316406 5560.296875 4066.972656 C 5560.78125 4065.628906 5561.234375 4064.273438 5561.652344 4062.90625 C 5562.070312 4061.539062 5562.453125 4060.164062 5562.804688 4058.777344 C 5563.15625 4057.394531 5563.472656 4056 5563.753906 4054.597656 C 5564.035156 4053.199219 5564.285156 4051.789062 5564.496094 4050.378906 C 5564.710938 4048.964844 5564.890625 4047.546875 5565.035156 4046.125 C 5565.179688 4044.703125 5565.289062 4043.277344 5565.363281 4041.851562 C 5565.4375 4040.425781 5565.476562 4038.996094 5565.480469 4037.566406 C 5565.484375 4036.136719 5565.453125 4034.710938 5565.386719 4033.28125 C 5565.320312 4031.855469 5565.222656 4030.429688 5565.085938 4029.007812 C 5564.949219 4027.585938 5564.777344 4026.167969 5564.574219 4024.75 C 5564.367188 4023.335938 5564.128906 4021.929688 5563.855469 4020.527344 C 5563.582031 4019.125 5563.273438 4017.730469 5562.929688 4016.339844 C 5562.585938 4014.953125 5562.210938 4013.574219 5561.800781 4012.207031 C 5561.390625 4010.839844 5560.949219 4009.480469 5560.472656 4008.132812 C 5559.996094 4006.785156 5559.484375 4005.449219 5558.945312 4004.128906 C 5558.402344 4002.804688 5557.828125 4001.496094 5557.222656 4000.203125 C 5556.613281 3998.910156 5555.976562 3997.628906 5555.308594 3996.367188 C 5554.640625 3995.105469 5553.941406 3993.859375 5553.210938 3992.628906 C 5552.480469 3991.402344 5551.722656 3990.191406 5550.933594 3989 C 5550.144531 3987.808594 5549.324219 3986.636719 5548.480469 3985.484375 C 5547.632812 3984.335938 5546.757812 3983.203125 5545.855469 3982.097656 C 5544.953125 3980.988281 5544.027344 3979.902344 5543.070312 3978.839844 C 5542.117188 3977.777344 5541.136719 3976.738281 5540.128906 3975.722656 C 5539.121094 3974.707031 5538.09375 3973.71875 5537.039062 3972.753906 C 5535.984375 3971.789062 5534.90625 3970.851562 5533.804688 3969.9375 C 5532.703125 3969.027344 5531.582031 3968.140625 5530.4375 3967.285156 C 5529.292969 3966.429688 5528.128906 3965.601562 5526.945312 3964.800781 C 5525.761719 3964 5524.558594 3963.230469 5523.335938 3962.492188 C 5522.113281 3961.75 5520.875 3961.039062 5519.617188 3960.359375 C 5518.359375 3959.679688 5517.085938 3959.03125 5515.796875 3958.414062 C 5514.511719 3957.796875 5513.207031 3957.210938 5511.890625 3956.65625 C 5510.570312 3956.101562 5509.242188 3955.582031 5507.898438 3955.09375 C 5506.554688 3954.605469 5505.199219 3954.148438 5503.835938 3953.726562 C 5502.46875 3953.304688 5501.09375 3952.917969 5499.710938 3952.5625 C 5498.328125 3952.207031 5496.933594 3951.886719 5495.535156 3951.601562 C 5494.132812 3951.3125 5492.726562 3951.0625 5491.316406 3950.84375 C 5489.902344 3950.628906 5488.488281 3950.445312 5487.066406 3950.296875 C 5485.644531 3950.148438 5484.21875 3950.035156 5482.792969 3949.957031 C 5481.367188 3949.878906 5479.9375 3949.835938 5478.507812 3949.828125 C 5477.078125 3949.816406 5475.652344 3949.84375 5474.222656 3949.90625 C 5472.796875 3949.96875 5471.371094 3950.0625 5469.949219 3950.195312 C 5468.523438 3950.328125 5467.105469 3950.492188 5465.691406 3950.695312 Z M 5465.691406 3950.691406 " fill-opacity="1" fill-rule="nonzero"/></g></svg>